<?xml version="1.0" standalone="no"?>
<!DOCTYPE svg PUBLIC "-//W3C//DTD SVG 20010904//EN"
 "http://www.w3.org/TR/2001/REC-SVG-20010904/DTD/svg10.dtd">
<svg version="1.0" xmlns="http://www.w3.org/2000/svg"
 width="1600.000000pt" height="1600.000000pt" viewBox="0 0 1600.000000 1600.000000"
 preserveAspectRatio="xMidYMid meet">
<metadata>
Created by potrace 1.14, written by Peter Selinger 2001-2017
</metadata>
<g transform="translate(0.000000,1600.000000) scale(0.100000,-0.100000)"
fill="#000000" stroke="none">
<path d="M3367 15893 c7 -213 9 -1790 2 -1873 -6 -68 -15 -99 -43 -155 -20
-38 -36 -78 -36 -87 0 -10 -4 -18 -10 -18 -5 0 -10 -6 -10 -13 0 -7 -11 -37
-25 -65 -14 -29 -25 -61 -25 -72 0 -11 -4 -20 -10 -20 -5 0 -10 -13 -10 -30 0
-16 -4 -30 -10 -30 -5 0 -10 -8 -10 -19 0 -16 -8 -41 -39 -116 -5 -11 -13 -31
-19 -45 -5 -14 -15 -45 -22 -70 -6 -25 -18 -60 -26 -78 -8 -18 -14 -41 -14
-52 0 -10 -4 -21 -9 -24 -5 -3 -11 -20 -14 -38 -2 -18 -12 -60 -22 -93 -30
-108 -74 -289 -82 -340 -2 -16 -8 -39 -13 -50 -5 -11 -11 -36 -14 -55 -7 -45
-19 -106 -51 -260 -26 -122 -32 -153 -57 -310 -17 -102 -17 -1015 -1 -1155 24
-197 39 -297 65 -415 21 -97 29 -136 47 -225 6 -27 15 -68 21 -90 6 -22 18
-69 26 -105 24 -110 51 -213 68 -260 9 -25 16 -54 16 -65 0 -12 4 -25 9 -30 5
-6 21 -46 36 -90 15 -44 35 -98 45 -120 9 -22 25 -60 35 -85 9 -25 21 -53 26
-62 5 -10 9 -27 9 -38 0 -11 5 -20 10 -20 6 0 10 -9 10 -19 0 -11 5 -23 10
-26 6 -3 10 -15 10 -25 0 -10 7 -25 15 -34 8 -8 15 -19 15 -25 0 -6 4 -20 10
-31 6 -11 15 -29 20 -40 5 -11 10 -27 10 -35 0 -8 3 -15 8 -15 11 0 39 -57 53
-108 13 -46 4 -241 -27 -612 -18 -206 -20 -585 -4 -685 28 -175 33 -297 31
-757 -2 -445 -3 -483 -22 -550 -34 -124 -46 -243 -48 -509 -2 -264 3 -320 45
-452 11 -36 15 -95 14 -255 -1 -181 -4 -214 -22 -265 -11 -31 -24 -57 -28 -57
-5 0 -11 -13 -15 -30 -4 -16 -11 -30 -16 -30 -5 0 -9 -7 -9 -15 0 -13 -20 -65
-41 -107 -5 -10 -9 -27 -9 -37 0 -11 -5 -23 -10 -26 -5 -3 -10 -17 -10 -31 0
-13 -4 -32 -9 -42 -5 -9 -14 -37 -20 -62 -6 -25 -18 -69 -26 -98 -8 -29 -15
-74 -15 -100 0 -26 -5 -65 -11 -87 -16 -55 6 -339 32 -418 11 -32 22 -78 26
-102 6 -48 11 -43 -72 -75 -107 -42 -162 -65 -170 -72 -5 -4 -19 -8 -31 -8
-13 0 -26 -4 -29 -10 -3 -5 -15 -10 -25 -10 -17 0 -83 -27 -152 -61 -10 -5
-27 -9 -38 -9 -11 0 -20 -4 -20 -10 0 -5 -13 -10 -28 -10 -15 0 -32 -4 -37 -8
-6 -5 -32 -17 -60 -26 -27 -10 -82 -33 -121 -52 -39 -19 -75 -34 -80 -34 -5 0
-20 -9 -34 -20 -14 -11 -32 -20 -41 -20 -8 0 -24 -8 -35 -18 -10 -10 -37 -31
-59 -47 -48 -36 -65 -51 -65 -60 0 -4 -7 -13 -15 -22 -19 -18 -95 -129 -95
-138 0 -3 -16 -31 -35 -61 -19 -30 -35 -61 -35 -69 0 -7 -4 -16 -9 -19 -5 -4
-15 -29 -22 -56 -7 -28 -16 -50 -21 -50 -4 0 -7 -3 -6 -7 4 -17 -15 -113 -23
-119 -5 -3 -9 -21 -9 -40 0 -19 -4 -34 -10 -34 -5 0 -10 -9 -10 -20 0 -11 -4
-20 -10 -20 -5 0 -12 -15 -16 -34 -6 -37 -33 -57 -36 -28 -1 9 -2 24 -4 32 -1
8 -2 29 -3 46 -1 25 -6 33 -26 38 -15 4 -22 11 -19 20 4 9 -7 15 -34 20 -22 3
-42 12 -45 20 -3 8 -21 16 -39 18 -18 2 -32 8 -31 14 1 6 -17 17 -40 24 -23 8
-50 19 -61 26 -10 7 -25 10 -32 7 -8 -3 -24 1 -37 10 -27 17 -64 19 -132 7
-113 -20 -145 -21 -151 -5 -3 8 -10 15 -16 15 -5 0 -6 -4 -3 -10 9 -14 -35
-12 -65 3 -33 17 -135 -7 -201 -46 -25 -15 -49 -27 -54 -27 -4 0 -24 -18 -45
-40 -25 -27 -43 -38 -54 -34 -11 4 -16 1 -16 -10 0 -9 -4 -16 -10 -16 -5 0
-10 5 -10 11 0 6 -5 5 -13 -3 -8 -7 -33 -29 -57 -48 -23 -19 -75 -67 -115
-106 -41 -39 -81 -74 -89 -77 -8 -3 -22 -23 -31 -43 l-16 -38 -29 35 c-16 19
-30 43 -30 54 -1 11 -4 14 -7 8 -7 -19 -23 -16 -23 5 0 20 -35 54 -64 62 -25
7 -54 57 -55 93 -1 15 -5 27 -9 27 -10 0 -32 67 -32 97 0 10 -7 28 -15 39 -13
17 -14 5 -15 -118 l0 -138 28 0 c25 0 31 -6 40 -39 7 -21 12 -43 12 -49 0 -6
15 -26 32 -44 46 -46 56 -68 50 -107 l-5 -33 -48 4 c-43 4 -49 3 -49 -13 0
-11 -4 -19 -10 -19 -5 0 -10 16 -10 35 0 23 -6 38 -15 42 -22 8 -33 -6 -15
-18 11 -8 12 -12 3 -16 -10 -3 -13 -220 -13 -994 l0 -989 750 0 750 0 0 27 c0
15 4 52 10 82 5 31 16 135 25 231 9 96 18 186 21 200 2 14 9 70 15 125 5 55
14 134 19 175 5 41 14 131 19 200 6 69 13 152 16 185 6 60 47 301 65 383 6 23
10 60 10 82 0 22 5 40 10 40 6 0 10 15 10 34 0 18 10 71 21 117 25 97 36 150
49 234 18 113 28 160 44 215 9 30 19 70 22 88 4 18 11 35 15 38 5 3 9 22 9 42
0 44 16 92 48 145 12 21 22 42 22 46 0 26 139 241 199 309 31 35 169 112 201
112 11 0 20 5 20 10 0 6 6 10 13 10 6 0 34 11 61 25 27 14 57 25 67 25 10 0
21 5 24 10 3 6 17 10 30 10 13 0 27 5 30 10 3 6 12 10 20 10 7 0 48 16 89 35
42 19 82 35 89 35 7 0 37 9 67 21 30 12 65 23 78 26 12 3 22 9 22 14 0 5 7 9
15 9 8 0 23 4 33 9 33 17 68 30 177 66 61 21 119 41 130 45 11 4 38 12 60 18
98 26 162 44 183 53 13 5 32 9 43 9 19 0 28 4 76 28 13 7 33 12 46 12 13 0 27
4 32 9 6 4 35 16 65 27 30 10 59 22 65 26 5 4 17 8 27 8 10 0 26 4 36 9 71 36
171 81 180 81 5 0 12 3 14 8 3 7 44 31 118 69 19 10 37 21 38 26 2 4 10 7 17
7 14 0 69 28 170 85 33 19 98 54 145 77 47 24 87 45 90 48 3 3 16 11 30 17 14
7 48 26 75 43 28 16 71 40 98 52 26 13 47 26 47 30 0 5 5 8 12 8 6 0 66 27
132 61 67 33 148 74 181 91 33 17 94 47 135 67 41 20 77 39 78 44 2 4 12 7 23
7 10 0 19 5 19 10 0 6 7 10 15 10 8 0 23 4 33 9 9 5 34 17 55 27 20 10 37 22
37 27 0 4 17 7 38 5 l37 -3 5 -55 c3 -31 15 -72 28 -93 12 -21 22 -45 22 -53
0 -8 5 -14 10 -14 6 0 10 -5 10 -11 0 -14 30 -43 37 -35 8 8 33 -41 33 -65 0
-11 5 -19 10 -19 6 0 10 -9 10 -20 0 -11 4 -28 9 -38 5 -9 17 -34 27 -54 10
-21 22 -38 26 -38 5 0 8 -9 8 -20 0 -11 4 -20 8 -20 5 0 25 -32 46 -71 l38
-71 -21 -59 c-20 -53 -43 -186 -44 -249 -2 -115 36 -404 54 -416 5 -3 9 -14 9
-25 0 -24 84 -287 109 -344 23 -51 41 -126 41 -169 0 -19 9 -78 20 -133 47
-228 48 -207 -9 -272 -11 -13 -21 -27 -21 -30 0 -3 -15 -22 -33 -42 -48 -55
-67 -79 -67 -84 0 -3 -25 -43 -55 -90 -30 -46 -55 -89 -55 -94 0 -6 -3 -11 -7
-11 -5 0 -17 -18 -27 -40 -11 -22 -23 -40 -28 -40 -4 0 -8 -9 -8 -20 0 -11 -4
-20 -10 -20 -5 0 -10 -9 -10 -19 0 -11 -5 -23 -10 -26 -26 -16 -2 -95 28 -95
21 0 122 -64 164 -104 15 -14 31 -26 35 -26 4 0 25 -16 45 -35 20 -19 41 -35
46 -35 5 0 17 -9 27 -20 10 -11 24 -20 32 -20 7 0 13 -3 13 -7 0 -5 20 -21 45
-38 24 -16 45 -33 45 -37 0 -5 8 -8 18 -9 9 0 31 -9 47 -19 37 -23 60 -36 150
-85 39 -21 81 -46 95 -55 41 -28 171 -87 220 -100 25 -7 54 -16 65 -20 83 -31
222 -60 288 -60 50 0 80 19 106 68 20 37 74 30 281 -38 52 -17 104 -35 115
-40 11 -5 40 -14 65 -20 65 -15 63 -15 86 -28 25 -13 110 -43 139 -49 11 -2
35 -6 53 -9 23 -5 37 -15 45 -33 7 -15 15 -118 19 -241 7 -199 18 -371 34
-513 5 -53 8 -57 31 -57 l26 0 -8 103 c-4 56 -12 145 -17 197 -11 114 -24 452
-19 498 2 23 7 30 15 23 11 -9 51 -14 89 -12 20 1 23 31 3 31 -8 0 -16 5 -18
11 -2 5 -10 11 -18 13 -8 2 -28 8 -44 15 l-29 12 6 177 c4 97 3 247 -1 332 -9
164 -17 194 -67 244 -14 14 -25 33 -25 43 0 11 3 14 8 7 4 -6 23 -14 42 -17
180 -27 346 -114 366 -192 12 -48 -4 -222 -31 -330 -42 -172 -44 -185 -56
-265 -13 -96 -13 -197 2 -285 6 -38 15 -99 19 -135 5 -36 16 -110 25 -165 9
-55 21 -129 26 -165 22 -152 18 -140 50 -140 29 0 29 1 23 42 -3 24 -10 64
-15 91 -9 50 -2 75 34 108 9 9 17 21 17 28 0 6 5 11 10 11 6 0 10 10 10 22 0
12 3 18 6 15 4 -4 14 7 23 22 9 16 26 48 39 70 12 22 34 53 50 69 54 58 103
132 86 132 -4 0 5 11 20 25 23 21 36 55 21 55 -3 0 -26 -20 -53 -45 -26 -25
-53 -45 -59 -45 -7 0 -13 -6 -13 -14 0 -8 -11 -17 -25 -20 -13 -3 -39 -22 -58
-41 -19 -19 -38 -35 -43 -35 -5 0 -16 -9 -24 -21 -13 -18 -59 -49 -73 -49 -11
0 -21 58 -43 250 l-5 45 52 30 c29 17 69 44 88 62 65 58 71 63 79 63 4 1 29
21 56 45 28 25 55 45 62 45 7 0 15 8 18 18 10 30 102 83 131 76 14 -3 25 -10
25 -15 0 -20 69 -7 137 26 40 19 77 35 83 35 6 0 18 4 28 9 9 4 63 30 119 57
57 26 103 52 103 56 0 4 9 8 20 8 11 0 20 5 20 10 0 6 5 10 10 10 6 0 16 5 23
10 49 41 65 53 94 67 18 8 33 19 33 24 0 5 5 9 11 9 6 0 16 6 24 12 7 7 25 22
40 33 59 42 125 99 125 107 0 4 6 8 13 8 7 0 24 12 38 28 14 15 50 50 80 78
30 27 72 72 94 98 22 26 52 62 67 79 15 18 28 37 28 44 0 6 3 13 8 15 4 2 20
20 35 41 39 52 39 118 1 179 -15 24 -31 45 -35 46 -5 2 -9 9 -9 15 0 7 -22 35
-48 63 -72 79 -92 103 -92 114 0 6 -4 10 -10 10 -5 0 -20 17 -34 38 -13 20
-51 66 -85 101 -33 35 -64 73 -67 86 -3 12 -1 49 5 81 6 32 11 79 11 106 0 34
7 60 25 88 14 22 25 44 25 50 0 10 20 50 30 60 8 8 51 130 62 175 20 85 29
248 23 435 -4 107 -11 199 -16 205 -5 5 -9 17 -9 27 0 33 -69 116 -114 137
-37 18 -61 21 -182 21 -76 0 -195 -7 -264 -15 -135 -16 -140 -15 -140 38 0 15
16 75 35 134 19 59 35 120 35 135 0 15 5 28 10 28 6 0 10 14 10 30 0 17 -4 30
-10 30 -5 0 -10 -11 -10 -24 0 -14 -5 -28 -10 -31 -6 -3 -10 -16 -10 -29 0
-12 -4 -26 -8 -32 -5 -5 -21 -49 -36 -99 -16 -49 -32 -99 -36 -110 -42 -103
-10 -88 -310 -146 -25 -5 -63 -14 -85 -20 -22 -6 -55 -13 -73 -16 -18 -3 -35
-9 -38 -14 -3 -5 -16 -9 -29 -9 -19 0 -26 9 -39 47 -9 26 -16 57 -16 69 0 13
-4 26 -10 29 -5 3 -10 16 -10 28 0 12 -6 33 -13 47 -7 14 -19 52 -27 85 -7 33
-17 64 -22 69 -4 6 -8 18 -8 28 0 10 -5 18 -10 18 -6 0 -9 3 -9 8 3 20 -2 32
-15 32 -8 0 -16 5 -18 12 -6 16 -158 29 -175 16 -9 -7 -13 -7 -13 1 0 6 5 11
10 11 6 0 10 5 10 11 0 6 18 36 40 68 22 31 40 62 40 68 0 7 6 16 12 20 7 4
18 17 24 28 27 50 40 70 56 89 10 11 20 28 24 38 3 10 10 18 15 18 5 0 9 9 9
20 0 11 5 20 10 20 6 0 10 7 10 15 0 8 3 15 8 15 4 0 20 25 36 55 16 30 32 55
37 55 5 0 9 9 9 20 0 11 4 20 8 20 5 0 17 19 28 43 10 23 21 44 24 47 3 3 14
23 24 45 11 22 27 52 37 67 11 14 19 35 19 47 0 20 19 71 30 81 8 7 30 156 30
203 0 88 -38 179 -66 156 -9 -7 -11 -35 -7 -105 5 -82 3 -105 -18 -169 -13
-41 -27 -75 -31 -75 -7 0 -10 58 -23 361 -6 128 -5 147 10 159 13 11 21 11 36
2 10 -7 25 -12 33 -12 24 0 156 -81 156 -95 0 -7 16 -43 35 -80 31 -58 53
-121 72 -203 3 -12 9 -25 14 -28 5 -3 9 -15 9 -27 0 -39 83 -270 106 -297 7
-9 20 -40 28 -70 18 -67 27 -95 61 -185 14 -38 32 -94 40 -123 9 -30 20 -62
25 -72 6 -10 10 -55 10 -99 0 -47 4 -81 10 -81 6 0 10 7 10 15 0 22 47 42 62
27 7 -7 18 -12 25 -12 7 0 30 -10 51 -23 20 -12 55 -29 76 -36 22 -8 63 -28
90 -46 28 -17 72 -38 99 -46 26 -7 47 -17 47 -21 0 -4 8 -8 19 -8 10 0 24 -7
31 -15 7 -8 17 -15 22 -15 5 0 18 -9 30 -20 12 -11 30 -20 40 -20 10 0 18 -4
18 -9 0 -5 13 -12 28 -16 15 -3 40 -17 56 -30 16 -13 38 -27 49 -31 11 -3 41
-22 67 -40 26 -19 52 -34 57 -34 5 0 58 -28 119 -62 60 -35 123 -70 139 -78
17 -8 41 -25 54 -37 13 -13 32 -23 42 -23 9 0 19 -4 21 -8 5 -14 117 -82 133
-82 8 0 15 -4 15 -10 0 -5 5 -10 12 -10 6 0 19 -6 27 -14 31 -27 87 -52 146
-65 33 -7 69 -17 80 -22 68 -29 173 -59 210 -59 14 0 25 -4 25 -9 0 -4 19 -11
43 -14 38 -5 104 -23 242 -64 28 -9 73 -19 100 -23 28 -4 70 -14 95 -23 25 -9
59 -17 76 -17 17 0 37 -7 44 -15 7 -8 23 -15 36 -15 12 0 26 -4 29 -10 3 -5
19 -10 34 -10 15 0 31 -4 36 -8 6 -5 30 -15 55 -22 25 -8 54 -20 65 -27 11 -7
27 -13 37 -13 10 0 18 -4 18 -10 0 -5 11 -10 25 -10 14 0 25 -4 25 -10 0 -5 7
-10 16 -10 9 0 41 -15 72 -33 31 -18 77 -39 101 -47 24 -8 59 -29 77 -47 41
-39 44 -40 44 -10 0 31 -33 61 -95 87 -87 36 -125 55 -125 63 0 4 -11 7 -25 7
-14 0 -25 5 -25 10 0 6 -5 10 -10 10 -6 0 -33 11 -62 25 -28 14 -60 25 -70 25
-10 0 -26 4 -36 9 -9 5 -37 14 -62 21 -25 7 -52 16 -61 20 -34 18 -253 80
-280 80 -15 0 -30 4 -33 9 -3 5 -38 16 -78 26 -40 9 -84 20 -98 25 -41 13
-102 28 -160 41 -30 6 -64 15 -75 19 -11 5 -45 16 -75 25 -30 10 -65 21 -78
26 -13 5 -33 9 -45 9 -13 0 -27 4 -33 8 -5 4 -34 16 -64 26 -30 11 -59 23 -64
27 -6 5 -18 9 -28 9 -10 0 -18 5 -18 10 0 6 -9 10 -20 10 -11 0 -20 5 -20 10
0 6 -5 10 -11 10 -7 0 -34 16 -60 35 -27 19 -53 35 -58 35 -5 0 -14 7 -21 15
-15 18 -118 75 -136 75 -7 0 -14 3 -16 8 -3 8 -73 47 -168 95 -36 17 -67 34
-70 37 -13 13 -91 60 -100 60 -5 0 -10 5 -10 10 0 6 -5 10 -10 10 -6 0 -29 11
-51 26 -83 52 -107 65 -249 132 -142 67 -212 102 -285 142 -38 21 -78 38 -87
39 -10 0 -18 6 -18 12 0 5 -4 8 -9 5 -19 -12 -76 140 -64 170 6 16 33 19 33 4
0 -5 9 -10 20 -10 11 0 20 -4 20 -9 0 -5 10 -13 23 -17 12 -4 24 -10 27 -13 3
-4 36 -22 73 -41 37 -19 73 -40 79 -47 6 -7 17 -13 24 -13 14 0 55 -21 123
-64 22 -15 44 -26 48 -26 5 0 19 -9 33 -20 14 -11 30 -20 37 -20 7 0 50 -24
95 -53 46 -29 103 -61 128 -72 25 -11 47 -22 50 -26 3 -3 20 -12 38 -20 17 -8
32 -17 32 -21 0 -5 7 -8 15 -8 8 0 15 -4 15 -8 0 -4 12 -13 28 -19 15 -7 50
-26 77 -42 28 -17 91 -51 140 -77 50 -25 113 -59 140 -75 28 -16 102 -54 165
-85 63 -31 136 -67 161 -80 26 -13 52 -24 58 -24 6 0 30 -9 54 -19 23 -11 78
-32 122 -47 44 -14 84 -31 90 -35 5 -5 19 -9 31 -9 13 0 26 -4 29 -10 3 -5 15
-10 26 -10 10 0 27 -4 37 -9 9 -4 31 -15 47 -23 17 -8 50 -20 75 -27 25 -7 53
-17 62 -22 10 -5 27 -9 37 -9 11 0 23 -4 26 -10 3 -5 13 -10 22 -10 9 0 46
-12 82 -26 111 -45 225 -84 244 -84 9 0 25 -4 35 -9 9 -5 58 -21 107 -36 50
-14 144 -44 210 -66 66 -22 132 -43 148 -46 15 -3 27 -9 27 -14 0 -5 7 -9 15
-9 8 0 37 -16 64 -35 26 -19 51 -35 55 -35 6 0 51 -36 70 -57 28 -31 36 -43
36 -57 0 -15 7 -35 36 -103 8 -17 14 -36 14 -42 0 -6 4 -19 9 -29 13 -26 31
-86 31 -105 0 -10 4 -25 9 -35 17 -32 40 -107 52 -170 6 -34 16 -65 20 -68 5
-3 9 -14 9 -25 0 -10 4 -27 9 -37 5 -9 15 -64 21 -122 6 -58 15 -121 20 -140
4 -19 11 -55 15 -80 4 -25 11 -49 15 -55 7 -10 11 -29 30 -150 5 -33 14 -87
19 -120 6 -33 14 -88 19 -122 5 -33 13 -66 17 -73 7 -11 15 -60 35 -205 10
-72 19 -113 30 -140 4 -11 13 -60 19 -110 6 -49 18 -116 26 -148 8 -32 15 -81
15 -110 0 -29 4 -68 10 -87 16 -60 34 -376 39 -687 l1 -33 1295 0 1295 0 0
8000 0 8000 -6319 0 -6318 0 4 -107z m1173 -547 c0 -11 -19 -15 -25 -6 -3 5 1
10 9 10 9 0 16 -2 16 -4z m-26 -41 c3 -9 0 -15 -9 -15 -7 0 -15 -10 -17 -22
-4 -27 -31 -31 -36 -5 -4 20 24 57 43 57 7 0 15 -7 19 -15z m6928 -162 c28
-32 58 -74 58 -84 0 -4 -12 -10 -26 -13 -20 -5 -24 -10 -15 -19 16 -16 14 -27
-4 -21 -8 4 -15 15 -15 26 0 11 -13 44 -30 73 -16 28 -27 55 -23 58 13 13 30
7 55 -20z m-6572 -72 c0 -11 -12 -33 -26 -48 -15 -15 -41 -59 -60 -98 -22 -46
-33 -62 -34 -47 0 12 -6 25 -14 28 -17 6 -86 -24 -86 -37 0 -5 -5 -9 -10 -9
-10 0 -21 -10 -127 -108 -29 -27 -54 -44 -57 -38 -2 6 -5 3 -5 -7 -1 -10 -5
-15 -11 -12 -5 3 -10 -1 -10 -9 0 -9 -4 -16 -10 -16 -5 0 -10 -7 -10 -16 0 -9
-17 -23 -40 -32 -22 -9 -40 -22 -40 -28 0 -7 -22 -36 -49 -65 -27 -30 -69 -76
-93 -103 -24 -27 -64 -72 -90 -99 -27 -27 -48 -54 -48 -58 0 -5 -9 -13 -20
-19 -11 -6 -18 -15 -15 -19 2 -5 -2 -14 -10 -21 -12 -10 -15 -10 -15 1 0 27
26 100 33 93 4 -4 7 5 7 19 0 15 9 46 19 69 11 24 28 66 39 93 20 49 22 50 69
55 50 6 73 15 73 30 0 5 16 24 36 42 19 18 44 41 54 51 13 13 25 17 40 12 15
-5 20 -3 16 3 -4 6 2 15 11 21 14 8 15 10 3 11 -9 0 2 16 28 40 24 22 45 40
47 40 7 0 43 31 112 98 35 34 68 62 74 62 5 0 9 5 9 10 0 6 5 10 11 10 7 0 19
8 28 19 9 10 26 21 39 25 12 4 22 12 22 17 0 5 6 9 13 10 6 0 28 11 47 24 43
29 50 30 50 6z m6667 -53 c-3 -8 -6 -5 -6 6 -1 11 2 17 5 13 3 -3 4 -12 1 -19z
m53 -53 c0 -12 -20 6 -31 28 l-11 22 21 -22 c11 -12 21 -25 21 -28z m-80 -70
c6 -3 10 -17 10 -31 0 -13 4 -24 9 -24 15 0 22 -30 11 -48 -8 -15 -9 -14 -10
6 0 12 -7 25 -15 28 -8 4 -15 17 -15 31 0 13 -4 22 -8 19 -5 -3 -9 16 -10 42
-1 45 0 46 9 15 5 -18 14 -35 19 -38z m114 16 c-6 -6 -34 20 -34 32 0 6 8 2
19 -9 10 -10 17 -21 15 -23z m-177 -133 c-3 -8 -6 -5 -6 6 -1 11 2 17 5 13 3
-3 4 -12 1 -19z m123 -18 c0 -10 5 -22 10 -25 6 -3 10 -21 10 -39 0 -17 5 -37
12 -44 14 -14 48 -118 48 -147 0 -11 9 -37 20 -58 29 -53 25 -68 -8 -28 -30
38 -50 72 -82 141 -12 25 -28 49 -36 53 -18 10 -19 31 -1 24 8 -3 20 -1 28 3
11 8 11 16 0 52 -21 71 -25 102 -12 94 6 -4 11 -16 11 -26z m-6510 -6 c0 -2
-7 -4 -15 -4 -8 0 -15 4 -15 10 0 5 7 7 15 4 8 -4 15 -8 15 -10z m-23 -20 c-3
-3 -12 -4 -19 -1 -8 3 -5 6 6 6 11 1 17 -2 13 -5z m-29 -29 c-3 -3 -9 2 -12
12 -6 14 -5 15 5 6 7 -7 10 -15 7 -18z m-328 6 c0 -6 -4 -13 -10 -16 -5 -3
-10 1 -10 9 0 9 5 16 10 16 6 0 10 -4 10 -9z m5966 -38 c10 -33 55 -123 65
-128 12 -8 12 -45 0 -45 -5 0 -12 6 -15 13 -5 10 -7 10 -12 0 -3 -7 -12 -13
-20 -13 -11 0 -14 9 -11 33 2 17 -2 39 -9 47 -17 21 -30 110 -15 110 6 0 14
-8 17 -17z m-6010 -39 c-19 -19 -21 -11 -4 16 7 11 14 16 16 10 2 -5 -4 -17
-12 -26z m7174 5 c0 -11 -4 -17 -10 -14 -5 3 -10 13 -10 21 0 8 5 14 10 14 6
0 10 -9 10 -21z m49 -67 c-5 -2 -16 4 -25 12 -12 12 -12 16 -2 17 10 0 10 2 1
6 -7 2 -13 12 -13 21 0 10 9 3 24 -18 13 -19 20 -36 15 -38z m-3805 -187 c10
-364 9 -355 51 -355 l25 0 -6 -92 c-4 -51 -10 -100 -15 -109 -4 -9 -11 -47
-14 -85 -6 -66 -22 -204 -27 -221 -1 -4 2 -23 6 -41 5 -22 4 -37 -3 -43 -6 -5
-9 -6 -6 -3 2 4 -1 16 -8 28 -6 11 -15 57 -18 101 -4 44 -12 114 -18 155 -12
74 -15 283 -6 390 6 71 24 361 23 369 0 3 0 39 1 80 2 141 9 65 15 -174z
m-3261 137 c-10 -10 -20 -17 -22 -16 -6 5 20 34 30 34 5 0 1 -8 -8 -18z m3467
-34 c0 -5 -4 -8 -10 -8 -5 0 -10 10 -10 23 0 18 2 19 10 7 5 -8 10 -18 10 -22z
m3696 -31 c8 -4 14 -15 14 -24 0 -14 -4 -13 -20 5 -11 12 -20 26 -20 32 0 5
-4 10 -10 10 -5 0 -10 10 -10 23 1 20 2 19 17 -8 9 -16 22 -34 29 -38z m-7196
33 c0 -5 -5 -10 -11 -10 -5 0 -7 5 -4 10 3 6 8 10 11 10 2 0 4 -4 4 -10z
m5908 -41 c-3 -20 -5 -19 -9 9 -3 20 -2 29 4 23 5 -5 7 -19 5 -32z m742 -10
c0 -5 -4 -9 -10 -9 -5 0 -10 7 -10 16 0 8 5 12 10 9 6 -3 10 -10 10 -16z
m-4453 -51 c-3 -7 -5 -2 -5 12 0 14 2 19 5 13 2 -7 2 -19 0 -25z m4488 12 c-3
-5 -1 -11 5 -15 13 -8 13 -25 0 -25 -5 0 -10 7 -10 15 0 8 -4 15 -10 15 -5 0
-10 7 -10 15 0 9 6 12 15 9 8 -4 13 -10 10 -14z m275 -35 c0 -8 -4 -15 -10
-15 -5 0 -10 7 -10 15 0 8 5 15 10 15 6 0 10 -7 10 -15z m295 5 c3 -5 1 -10
-4 -10 -6 0 -11 5 -11 10 0 6 2 10 4 10 3 0 8 -4 11 -10z m-1215 -30 c0 -5 -4
-10 -10 -10 -5 0 -10 5 -10 10 0 6 5 10 10 10 6 0 10 -4 10 -10z m940 -35 c0
-14 -2 -25 -4 -25 -2 0 -6 11 -8 25 -3 14 -1 25 3 25 5 0 9 -11 9 -25z m17
-47 c-3 -7 -5 -2 -5 12 0 14 2 19 5 13 2 -7 2 -19 0 -25z m-907 -35 c0 -20 -3
-24 -11 -16 -7 7 -9 19 -6 27 10 24 17 19 17 -11z m-147 -47 c3 -8 3 -24 0
-35 -3 -12 -1 -21 6 -21 6 0 11 -6 11 -13 0 -8 -7 -14 -15 -14 -8 0 -15 5 -15
11 0 6 -7 24 -15 40 -13 24 -13 31 -3 38 18 11 25 10 31 -6z m-6298 -17 c-4
-6 2 -13 14 -16 12 -3 21 -7 21 -10 0 -2 -23 -27 -50 -54 -47 -47 -50 -49 -44
-22 4 15 11 32 15 38 5 5 9 19 9 32 0 12 8 27 18 32 22 13 25 13 17 0z m65
-10 c0 -5 -4 -9 -10 -9 -5 0 -10 7 -10 16 0 8 5 12 10 9 6 -3 10 -10 10 -16z
m5980 -38 c0 -6 -4 -13 -10 -16 -5 -3 -10 1 -10 9 0 9 5 16 10 16 6 0 10 -4
10 -9z m-6110 -101 c0 -5 -4 -10 -10 -10 -5 0 -10 5 -10 10 0 6 5 10 10 10 6
0 10 -4 10 -10z m6417 -52 c-3 -8 -6 -5 -6 6 -1 11 2 17 5 13 3 -3 4 -12 1
-19z m-3631 -310 c-4 -35 -10 -92 -14 -128 l-7 -65 -14 85 c-9 60 -10 85 -2
88 6 2 11 10 11 18 0 8 5 14 10 14 6 0 10 11 10 25 0 14 3 25 6 25 4 0 3 -28
0 -62z m1725 -108 c11 -47 24 -110 29 -141 5 -32 14 -77 21 -100 6 -24 19 -89
29 -143 11 -54 22 -106 25 -115 4 -9 10 -38 15 -66 4 -27 15 -84 24 -125 24
-107 42 -240 62 -440 2 -25 8 -88 14 -140 20 -188 37 -427 57 -795 12 -211 21
-64 23 360 1 231 6 492 11 580 5 88 11 204 12 257 2 54 5 100 8 103 3 2 13
-30 23 -73 17 -72 57 -214 76 -272 5 -14 14 -62 20 -107 7 -46 16 -83 20 -83
4 0 10 -17 13 -37 8 -61 36 -173 49 -196 6 -12 15 -58 19 -102 5 -44 13 -102
19 -130 5 -27 14 -88 19 -135 5 -47 14 -108 20 -136 7 -28 11 -78 9 -110 l-3
-59 -48 2 c-45 3 -47 2 -37 -17 6 -11 20 -20 30 -20 22 0 60 -19 72 -35 4 -5
8 -42 8 -80 0 -39 4 -85 10 -104 5 -18 10 -51 12 -73 1 -22 5 -41 9 -44 4 -2
11 -41 15 -86 l7 -81 18 34 c10 19 18 46 19 62 0 15 4 27 8 27 13 0 32 144 32
233 0 59 3 78 13 74 9 -3 11 -37 9 -138 -3 -103 0 -148 12 -189 9 -29 16 -66
16 -81 0 -39 24 -49 114 -49 84 0 109 14 122 67 4 16 10 33 14 38 3 6 14 37
24 70 10 33 23 70 27 83 5 13 9 32 9 43 0 10 5 29 12 42 6 12 14 29 18 37 5
10 26 16 69 18 33 2 61 7 61 11 0 4 -25 14 -54 21 -32 7 -58 20 -61 29 -6 14
13 109 36 187 5 17 9 40 9 52 0 11 5 24 10 27 6 3 10 25 10 47 0 22 4 57 9 77
35 135 61 408 77 819 6 145 9 164 26 173 21 11 23 7 32 -61 8 -64 22 -134 41
-215 9 -38 20 -100 25 -136 5 -36 14 -95 21 -130 6 -35 15 -95 19 -134 30
-276 32 -333 26 -735 -6 -358 -5 -418 8 -436 11 -16 33 -24 88 -32 108 -17
204 -25 286 -26 68 -1 74 1 87 24 27 50 65 141 65 155 0 8 3 15 8 15 4 0 13
15 20 33 8 17 17 41 22 52 19 45 40 120 40 141 0 13 5 26 10 29 6 3 10 17 10
30 0 13 5 27 10 30 6 3 10 17 10 30 0 13 4 26 9 29 14 9 38 -3 45 -22 3 -9 21
-44 41 -77 36 -62 65 -121 65 -135 0 -5 4 -10 8 -12 9 -4 52 -76 52 -88 0 -4
-13 -22 -30 -40 -31 -34 -39 -77 -18 -98 9 -9 9 -20 -1 -47 -8 -23 -9 -40 -3
-48 5 -7 14 -32 20 -57 28 -116 36 -184 37 -300 0 -129 -8 -167 -66 -314 -10
-27 -19 -56 -19 -65 0 -10 -9 -36 -20 -59 -11 -23 -23 -56 -27 -72 -3 -17 -10
-33 -14 -36 -5 -3 -9 -14 -9 -25 0 -10 -4 -19 -10 -19 -5 0 -10 -10 -10 -23 0
-13 -4 -27 -9 -32 -4 -6 -21 -46 -36 -90 -15 -44 -31 -84 -36 -90 -5 -5 -9
-17 -9 -26 0 -10 -11 -39 -25 -65 -14 -26 -25 -53 -25 -60 0 -8 -4 -14 -10
-14 -5 0 -10 -9 -10 -20 0 -11 -4 -20 -10 -20 -5 0 -10 -7 -10 -15 0 -9 -11
-33 -25 -55 -14 -22 -25 -46 -25 -54 0 -8 -4 -18 -10 -21 -5 -3 -10 -15 -10
-26 0 -10 -4 -19 -10 -19 -5 0 -10 -7 -10 -15 0 -8 -4 -15 -10 -15 -5 0 -10
-5 -10 -12 0 -6 -11 -26 -25 -44 -14 -18 -25 -37 -25 -43 0 -6 -4 -11 -8 -11
-7 0 -52 -82 -52 -95 0 -3 4 -5 10 -5 5 0 12 11 16 25 3 14 12 29 19 33 7 4
34 41 61 82 26 41 51 77 56 78 4 2 8 11 8 21 0 9 9 27 20 38 10 12 34 50 53
85 18 35 46 82 60 105 15 24 27 45 27 48 0 2 15 28 33 57 18 29 48 84 67 121
35 70 63 99 73 73 8 -20 -11 -135 -39 -243 -13 -51 -24 -104 -24 -117 0 -14
-4 -28 -10 -31 -5 -3 -10 -28 -10 -55 0 -27 -4 -52 -10 -55 -5 -3 -10 -24 -10
-45 0 -21 -4 -42 -10 -45 -5 -3 -10 -15 -10 -25 0 -10 -6 -31 -14 -47 -16 -31
-36 -112 -36 -143 0 -11 -4 -20 -10 -20 -5 0 -10 -11 -10 -25 0 -14 -4 -33 -9
-43 -9 -16 -23 -61 -51 -162 -6 -25 -16 -53 -21 -62 -5 -10 -9 -27 -9 -38 0
-11 -4 -28 -9 -38 -23 -47 -41 -91 -52 -127 -6 -22 -15 -49 -20 -60 -4 -11
-10 -31 -12 -45 -6 -33 -41 -125 -71 -192 -22 -47 -43 -104 -92 -247 -9 -24
-24 -53 -35 -64 -10 -11 -21 -29 -25 -39 -3 -10 -10 -18 -15 -18 -5 0 -9 -9
-9 -20 0 -11 -4 -20 -10 -20 -5 0 -10 -5 -10 -11 0 -16 -58 -97 -132 -184 -16
-18 -28 -35 -28 -39 0 -9 -103 -146 -138 -184 -17 -18 -46 -51 -64 -73 -68
-83 -204 -211 -297 -278 -34 -24 -61 -48 -61 -52 0 -5 -6 -9 -14 -9 -8 0 -16
-3 -18 -7 -1 -5 -48 -42 -103 -83 -124 -93 -133 -100 -162 -127 -13 -13 -27
-23 -31 -23 -4 0 -18 -10 -32 -23 -14 -13 -53 -42 -86 -65 -34 -23 -69 -48
-77 -57 -9 -8 -20 -15 -26 -15 -6 0 -11 -4 -11 -10 0 -5 -5 -10 -12 -10 -7 0
-23 -11 -37 -24 -28 -25 -377 -266 -386 -266 -3 0 -36 -20 -74 -45 -38 -25
-71 -45 -75 -45 -3 0 -29 -11 -58 -25 -28 -14 -57 -25 -63 -25 -6 0 -20 -8
-31 -18 -21 -20 -84 -39 -154 -47 -45 -6 -76 3 -163 46 -22 11 -48 19 -60 19
-20 0 -180 74 -247 115 -19 12 -62 32 -95 44 -98 37 -438 201 -443 214 -2 4
-8 7 -13 7 -12 0 -93 52 -97 63 -2 4 -11 7 -21 7 -9 0 -41 16 -71 35 -49 31
-90 44 -90 29 0 -10 65 -64 77 -64 7 0 13 -4 13 -10 0 -5 4 -10 10 -10 5 0 33
-15 62 -33 56 -35 438 -225 498 -248 19 -7 52 -23 72 -36 21 -13 41 -23 44
-23 4 0 66 -29 139 -65 73 -36 140 -65 150 -65 9 0 29 -7 45 -15 17 -9 33 -15
37 -15 15 0 78 -22 88 -31 13 -12 142 -11 150 1 3 6 15 10 26 10 10 0 19 4 19
8 0 10 65 42 85 42 8 0 15 5 15 10 0 6 9 10 20 10 11 0 20 5 20 10 0 6 9 10
20 10 11 0 20 3 20 8 0 10 58 42 76 42 8 0 14 4 14 9 0 5 9 11 21 14 18 5 20
2 16 -21 -27 -130 -36 -182 -36 -209 -1 -18 -5 -33 -11 -33 -5 0 -10 -17 -10
-38 0 -21 -5 -43 -11 -49 -14 -14 -13 -256 1 -303 5 -19 10 -61 10 -93 0 -32
5 -67 10 -77 6 -11 11 -52 13 -93 2 -67 -1 -79 -38 -152 -22 -44 -43 -81 -47
-83 -5 -2 -8 -12 -8 -23 0 -10 -4 -19 -10 -19 -5 0 -10 -5 -10 -10 0 -6 -20
-41 -45 -79 -25 -38 -45 -71 -45 -75 0 -4 -7 -14 -15 -23 -8 -8 -13 -19 -10
-24 4 -5 0 -9 -7 -9 -7 0 -20 -15 -27 -32 -8 -18 -32 -55 -53 -81 -21 -27 -38
-53 -38 -57 0 -5 -7 -15 -15 -23 -17 -18 -53 -75 -61 -99 -4 -10 -10 -18 -15
-18 -5 0 -9 -16 -9 -35 0 -19 -4 -35 -10 -35 -5 0 -10 -11 -10 -25 0 -14 -4
-25 -10 -25 -5 0 -10 -9 -10 -20 0 -27 -2 -26 -43 15 -30 30 -42 35 -81 35
-63 0 -185 20 -221 36 -16 7 -48 32 -69 54 -22 22 -43 40 -47 40 -4 0 -14 6
-21 12 -26 25 -97 78 -103 78 -3 0 -26 20 -52 45 -25 25 -51 45 -59 45 -8 0
-14 5 -14 10 0 6 -7 10 -15 10 -8 0 -27 14 -42 31 -16 17 -52 45 -80 61 -29
17 -53 33 -53 37 0 4 -12 13 -26 20 -15 6 -52 33 -82 59 -31 26 -63 53 -72 60
-8 7 -29 25 -47 40 -17 15 -44 36 -59 47 -15 11 -45 37 -66 58 -21 20 -45 37
-53 37 -8 0 -15 5 -15 10 0 12 -45 60 -55 60 -18 0 -235 237 -235 256 0 5 -16
24 -35 41 -19 18 -35 39 -35 48 0 8 -4 15 -10 15 -9 0 -26 67 -21 84 29 103
45 1094 19 1191 -7 24 -9 47 -6 51 8 7 88 -36 88 -48 0 -4 9 -8 20 -8 11 0 20
-4 20 -9 0 -4 20 -19 45 -32 25 -13 45 -27 45 -31 0 -5 8 -8 19 -8 10 0 30
-10 44 -22 42 -38 70 -58 99 -71 15 -6 28 -15 28 -19 0 -5 9 -8 20 -8 11 0 20
-4 20 -10 0 -5 7 -10 17 -10 14 0 14 2 -2 20 -10 11 -24 20 -31 20 -13 0 -37
17 -69 48 -8 6 -18 12 -23 12 -4 0 -19 11 -32 25 -13 14 -28 25 -34 25 -6 0
-25 13 -43 28 -59 51 -73 62 -81 62 -5 0 -19 11 -32 25 -13 14 -29 25 -35 25
-6 0 -20 8 -31 18 -10 9 -30 25 -44 35 -132 92 -185 135 -330 272 -81 76 -290
294 -290 302 0 4 -14 22 -30 40 -17 18 -30 36 -30 40 0 4 -16 26 -35 48 -19
22 -35 45 -35 52 0 7 -4 13 -8 13 -5 0 -17 16 -28 35 -10 19 -21 35 -24 35 -3
0 -12 15 -20 33 -7 17 -18 37 -22 42 -13 15 -99 146 -118 180 -10 17 -26 45
-36 64 -11 19 -27 44 -36 55 -10 11 -18 25 -18 30 0 10 -14 28 -60 83 -5 7
-10 16 -10 21 0 9 -32 16 -160 32 -117 15 -175 35 -216 74 -12 11 -48 44 -80
71 -62 53 -134 117 -170 150 -12 11 -38 33 -57 49 -48 38 -163 153 -212 212
-22 26 -60 71 -85 100 -25 28 -52 65 -60 81 -8 15 -19 35 -26 43 -6 8 -17 39
-23 69 -17 82 -25 484 -13 701 11 185 23 260 43 260 5 0 9 5 9 11 0 17 52 59
72 59 9 0 19 4 22 9 3 5 23 11 43 14 21 3 51 9 66 13 28 6 101 -10 121 -28 6
-4 18 -8 28 -8 10 0 18 -4 18 -10 0 -5 5 -10 11 -10 14 0 93 -59 149 -112 51
-48 69 -83 106 -203 9 -27 20 -60 25 -73 5 -13 9 -32 9 -42 0 -11 3 -20 8 -20
12 0 62 -128 62 -162 0 -10 5 -18 11 -18 8 0 10 31 6 108 -16 287 -27 425 -42
512 -29 180 -29 172 -3 210 33 50 46 80 52 120 18 120 35 180 65 224 18 25 37
46 44 46 7 0 20 -17 29 -37 15 -35 24 -66 50 -168 5 -22 14 -48 19 -57 5 -10
9 -27 9 -39 0 -22 26 -110 41 -141 5 -10 9 -29 9 -42 0 -14 5 -28 10 -31 6 -3
10 -17 10 -31 0 -13 5 -24 10 -24 6 0 10 -11 10 -25 0 -22 16 -68 41 -117 5
-10 9 -29 9 -42 0 -14 5 -28 10 -31 6 -3 10 -15 10 -26 0 -10 4 -27 9 -37 10
-18 30 -64 56 -127 38 -89 62 -134 68 -128 4 3 7 -3 7 -15 0 -12 4 -22 9 -22
10 0 2 48 -10 56 -5 3 -9 14 -9 25 0 10 -3 19 -7 19 -10 0 -33 49 -33 70 0 9
-3 20 -7 24 -8 7 -27 58 -49 131 -9 28 -20 58 -25 67 -5 10 -9 27 -9 37 0 11
-4 23 -10 26 -5 3 -10 15 -10 26 0 11 -9 48 -21 82 -12 34 -25 85 -31 112 -15
82 -28 156 -38 220 -5 33 -17 96 -26 140 -10 49 -19 142 -21 239 -4 153 -3
160 20 195 12 20 45 81 72 136 28 55 53 102 58 103 4 2 7 10 7 18 0 8 11 32
25 54 14 22 25 43 25 47 0 5 20 35 45 68 25 33 45 64 45 70 0 6 8 20 18 31 10
10 29 39 42 64 14 25 31 51 38 58 6 7 12 20 12 28 0 8 5 14 10 14 6 0 10 7 10
16 0 14 22 44 33 44 6 0 21 -187 20 -250 -1 -48 -8 -123 -28 -305 -4 -27 -10
-59 -15 -70 -5 -11 -11 -38 -13 -60 -4 -32 -22 -135 -37 -210 -8 -37 10 -41
53 -12 15 9 29 17 33 17 9 0 43 44 44 57 0 6 4 13 8 15 11 4 46 83 67 153 11
33 22 62 25 65 3 3 18 41 33 85 45 135 49 149 68 195 10 25 35 97 55 160 21
63 46 126 57 140 l19 25 -6 -55 c-3 -30 -10 -82 -16 -115 -9 -58 -17 -112 -40
-275 -5 -41 -14 -122 -20 -180 -6 -58 -17 -141 -24 -185 -8 -44 -14 -81 -12
-82 10 -10 27 24 86 172 4 11 14 40 21 65 7 25 16 49 21 55 4 5 8 18 8 28 0
10 7 33 16 50 32 61 34 67 34 96 0 17 5 33 10 36 6 3 10 16 10 29 0 12 4 26 8
32 4 5 16 36 26 69 10 33 22 70 27 83 5 13 9 34 9 47 0 14 5 25 10 25 6 0 10
13 10 29 0 17 4 32 9 35 4 3 11 20 15 38 3 18 16 65 27 103 11 39 24 86 29
105 21 78 45 155 51 160 3 3 9 12 12 20 9 20 -2 -140 -13 -215 -26 -159 -40
-258 -50 -345 -23 -199 -39 -264 -66 -274 -19 -7 -18 -33 3 -45 17 -9 17 -12
0 -58 -9 -26 -17 -58 -17 -70 0 -12 -4 -25 -10 -28 -5 -3 -10 -30 -10 -60 0
-30 -4 -57 -10 -60 -5 -3 -10 -22 -10 -41 0 -20 -5 -44 -10 -54 -18 -33 22
-50 115 -50 140 0 263 35 286 81 4 7 40 80 79 162 40 81 80 153 88 159 18 15
260 47 287 38 29 -10 31 -47 3 -69 -13 -11 -25 -31 -26 -47 -1 -16 -9 -61 -17
-101 -18 -89 -18 -88 0 -69 8 8 15 22 15 30 0 9 4 16 10 16 5 0 12 11 16 25 3
14 10 25 15 25 5 0 9 13 9 29 0 17 5 33 10 36 6 3 10 28 10 54 0 56 13 66 105
80 33 5 74 12 92 16 28 5 33 3 39 -18 3 -14 -2 -54 -11 -89 -20 -76 -37 -325
-24 -350 14 -26 47 -31 133 -19 43 6 101 11 129 11 94 1 187 36 187 70 0 10 3
20 8 22 7 3 36 60 67 133 9 22 21 48 26 57 5 10 9 23 9 29 0 6 15 44 34 83 18
39 39 91 47 116 7 25 23 65 35 90 12 25 27 63 35 85 7 22 17 44 21 49 4 6 8
18 8 28 0 10 4 26 9 36 4 9 16 35 26 57 9 22 21 48 26 57 5 10 9 27 9 38 0 11
4 28 10 38 10 18 50 139 68 207 6 22 20 72 31 110 32 109 51 184 51 205 0 10
5 20 11 22 6 2 13 28 15 58 5 72 13 110 25 110 5 0 9 -13 9 -30 0 -16 -4 -30
-10 -30 -5 0 -10 -22 -10 -49 0 -28 -4 -52 -9 -55 -5 -3 -11 -32 -14 -63 -11
-119 -48 -302 -78 -381 -5 -13 -9 -39 -9 -58 0 -19 -4 -42 -9 -52 -5 -9 -14
-35 -19 -57 -22 -88 -33 -132 -43 -165 -6 -19 -13 -50 -16 -68 -3 -18 -9 -35
-14 -38 -5 -3 -9 -16 -9 -30 0 -13 -4 -32 -8 -42 -14 -27 -54 -145 -59 -172
-2 -14 -8 -34 -13 -45 -4 -11 -20 -60 -35 -110 -15 -49 -32 -98 -36 -107 -5
-10 -9 -27 -9 -37 0 -11 -4 -23 -10 -26 -5 -3 -10 -24 -10 -46 0 -53 23 -51
48 4 51 111 62 138 62 157 0 11 5 20 10 20 6 0 10 7 10 15 0 8 4 23 9 33 5 9
17 37 26 62 9 25 21 53 26 62 5 10 9 27 9 38 0 11 4 28 9 38 6 9 22 51 36 92
14 41 30 83 36 92 5 10 9 28 9 41 0 25 14 77 31 112 5 11 22 71 38 133 15 62
31 115 34 119 4 3 7 17 7 29 0 13 5 26 10 29 6 3 10 25 10 49 0 23 4 46 9 52
8 9 51 175 70 274 6 30 13 69 16 85 4 17 12 62 20 100 7 39 19 88 25 110 7 22
14 58 16 80 5 48 23 138 36 181 5 18 13 56 19 85 5 30 14 77 19 104 6 28 12
75 15 105 3 30 10 73 15 95 5 22 14 69 20 105 6 36 13 74 15 85 2 11 4 79 5
150 1 128 2 129 16 85 8 -25 23 -83 35 -130z m-1260 -1317 c-2 -306 -20 -646
-37 -713 -8 -30 -14 -77 -14 -106 0 -76 -15 -85 -131 -82 -90 3 -94 4 -97 26
-2 13 4 34 12 47 9 13 16 45 16 70 0 25 5 45 10 45 6 0 10 13 10 28 0 16 3 32
7 36 4 4 13 31 19 59 7 29 17 70 24 92 6 22 16 59 21 83 5 23 13 61 18 85 33
149 43 198 51 247 5 30 14 78 19 105 6 28 13 66 17 85 4 19 10 40 14 45 4 6
11 30 15 53 5 31 10 41 17 34 7 -7 10 -92 9 -239z m-181 -16 c0 -51 -4 -126
-10 -167 -5 -41 -14 -118 -21 -170 -6 -52 -16 -117 -21 -145 -5 -27 -11 -76
-15 -108 -3 -31 -9 -60 -14 -63 -5 -3 -9 -22 -9 -43 0 -20 -4 -41 -10 -47 -5
-5 -10 -26 -12 -47 -1 -20 -6 -37 -10 -37 -5 0 -12 -8 -15 -17 -4 -10 -12 -23
-18 -29 -16 -16 -228 -28 -254 -14 l-21 11 25 39 c14 22 25 47 25 55 0 9 9 35
20 57 11 23 20 47 20 54 0 6 15 43 33 80 19 38 39 85 46 104 8 19 24 58 37 86
13 28 24 54 24 58 0 3 10 28 21 54 12 26 32 72 46 102 13 30 28 63 34 72 5 10
9 27 9 37 0 11 5 23 10 26 6 3 10 15 10 26 0 10 4 27 9 37 5 9 17 34 27 54 10
20 22 35 26 32 4 -3 8 -47 8 -97z m4110 -2200 c14 -7 35 -23 48 -37 22 -24 23
-31 18 -145 -2 -66 -9 -145 -16 -175 -6 -30 -15 -77 -19 -105 -5 -27 -17 -79
-26 -115 -9 -36 -20 -87 -25 -115 -11 -58 -26 -137 -35 -180 -5 -25 -35 -97
-64 -155 -18 -35 -29 -57 -45 -86 -9 -18 -26 -51 -37 -75 -20 -40 -51 -102
-86 -169 -7 -14 -25 -52 -41 -85 -15 -34 -38 -75 -50 -92 -12 -17 -22 -36 -22
-42 0 -20 -44 -79 -70 -94 -44 -26 -117 -25 -151 2 -22 17 -22 21 -10 62 7 24
17 52 22 61 5 10 9 29 9 43 0 14 5 25 10 25 6 0 10 11 10 25 0 14 5 25 10 25
6 0 10 8 10 18 0 29 36 66 56 58 10 -4 36 -4 58 -1 38 6 43 11 68 63 14 31 32
72 38 90 7 17 16 32 21 32 5 0 9 7 9 15 0 15 21 64 48 110 37 66 43 94 39 182
-5 103 -18 158 -36 158 -10 0 -13 -27 -12 -127 2 -131 -7 -171 -59 -248 -20
-28 -60 -132 -67 -172 -8 -40 -38 -67 -70 -63 -16 2 -31 4 -35 4 -12 1 -9 81
2 81 6 0 10 12 10 26 0 15 11 58 25 96 14 38 25 80 25 94 0 13 4 24 9 24 5 0
12 19 15 43 15 110 19 133 28 144 6 7 11 27 13 45 4 54 31 162 49 195 9 18 16
39 16 47 0 9 11 39 23 68 13 29 30 69 36 88 7 19 16 44 21 55 15 41 30 92 30
105 0 34 43 152 66 179 34 41 73 47 134 18z m-6268 -2781 c14 -12 37 -29 50
-39 12 -11 55 -34 93 -53 39 -18 94 -47 124 -64 30 -17 73 -33 95 -37 23 -3
69 -19 103 -35 34 -15 76 -31 93 -34 17 -4 33 -11 36 -15 3 -5 16 -9 29 -9 13
0 41 -7 62 -16 21 -9 47 -20 58 -25 11 -4 56 -10 100 -13 99 -7 165 -16 165
-24 0 -9 -53 -62 -62 -62 -11 0 -108 -94 -108 -104 0 -4 -10 -22 -23 -39 -13
-18 -29 -51 -35 -73 -13 -45 -17 -236 -5 -248 4 -4 9 -19 11 -33 2 -21 27 -72
60 -127 14 -23 18 34 6 84 -16 66 -18 146 -4 155 6 3 10 17 10 30 0 13 5 27
10 30 6 3 10 14 10 24 0 24 54 131 82 161 13 14 44 38 68 55 25 16 48 34 51
39 9 12 148 17 170 6 36 -20 40 -65 36 -436 -2 -244 -7 -366 -15 -380 -6 -12
-42 -36 -79 -54 -37 -18 -76 -37 -85 -41 -10 -5 -25 -9 -33 -9 -8 0 -15 -4
-15 -10 0 -5 -11 -10 -24 -10 -13 0 -39 -10 -57 -23 -19 -13 -48 -29 -65 -37
-26 -11 -36 -26 -53 -76 -11 -34 -21 -71 -21 -83 0 -11 -4 -21 -8 -21 -16 0
-61 -147 -62 -202 0 -14 -5 -28 -11 -30 -6 -2 -9 -19 -7 -38 l3 -34 29 44 c15
23 31 60 34 82 2 21 9 41 13 44 5 3 9 23 9 44 0 21 5 42 10 45 6 3 10 24 10
46 0 21 5 39 10 39 6 0 10 10 10 22 0 31 77 101 131 118 24 8 53 19 64 26 11
6 38 17 60 24 22 7 45 16 50 20 6 5 25 10 44 12 l35 3 -3 -58 c-1 -31 -7 -72
-12 -90 -5 -17 -9 -48 -9 -67 0 -20 -5 -41 -12 -48 -8 -8 -9 -12 -1 -12 13 0
11 -30 -2 -32 -4 0 -27 20 -50 46 -24 25 -40 46 -37 46 3 0 -5 11 -17 24 -20
22 -22 29 -13 56 22 61 -11 80 -54 33 -21 -23 -25 -35 -20 -63 3 -19 10 -36
16 -38 5 -2 10 -8 10 -13 0 -6 9 -20 21 -32 12 -12 33 -38 48 -57 14 -19 43
-52 64 -74 21 -21 45 -52 54 -67 9 -15 27 -33 40 -40 13 -7 23 -16 23 -19 0
-4 15 -24 33 -43 17 -20 52 -58 77 -86 25 -27 48 -47 52 -45 5 3 8 1 8 -5 0
-14 252 -261 267 -261 4 0 26 -17 49 -38 22 -20 67 -59 99 -87 32 -27 64 -56
71 -62 7 -7 15 -13 18 -13 3 0 23 -16 43 -35 20 -19 41 -35 46 -35 5 0 17 -8
26 -17 9 -10 42 -35 73 -56 31 -21 67 -47 79 -58 13 -11 39 -29 59 -41 19 -12
42 -29 51 -37 9 -9 27 -23 40 -31 13 -8 34 -27 48 -42 14 -16 30 -28 36 -28
15 -1 55 -36 55 -49 0 -6 -6 -11 -14 -11 -8 0 -22 -7 -30 -16 -9 -8 -16 -12
-16 -8 0 4 -13 -12 -30 -34 -16 -23 -30 -47 -30 -53 0 -5 -4 -7 -10 -4 -6 3
-10 -5 -10 -18 0 -14 -9 -42 -19 -64 -11 -21 -32 -69 -46 -108 -31 -82 -66
-157 -78 -166 -12 -9 -100 1 -111 12 -6 5 -34 9 -63 9 -30 0 -107 9 -171 19
-117 19 -178 28 -412 55 -125 15 -378 30 -522 31 -71 0 -79 2 -107 29 -17 17
-31 34 -31 39 0 5 -15 30 -33 56 -18 25 -46 71 -62 101 -15 30 -36 67 -47 82
-10 14 -18 30 -18 35 0 5 -31 72 -70 148 l-69 140 15 55 c9 30 21 73 27 95 6
22 14 44 19 49 4 6 8 19 8 31 0 12 4 25 8 31 5 5 17 36 27 69 11 33 23 64 27
69 4 6 8 25 8 42 0 18 5 36 10 39 6 3 10 22 10 41 0 19 4 33 8 30 13 -8 44
156 32 168 -7 7 -10 0 -10 -20 0 -16 -7 -38 -15 -48 -8 -11 -15 -29 -15 -40 0
-23 -22 -92 -33 -102 -4 -4 -7 -16 -7 -26 0 -10 -4 -26 -9 -36 -14 -27 -61
-156 -61 -168 0 -6 -11 -34 -25 -62 -14 -29 -25 -56 -25 -61 0 -19 -77 -91
-97 -91 -11 0 -51 -16 -89 -35 -37 -19 -74 -35 -81 -35 -7 0 -13 -4 -13 -10 0
-5 -5 -10 -11 -10 -6 0 -32 -11 -58 -24 -105 -54 -129 -65 -191 -94 -36 -16
-74 -33 -85 -37 -85 -33 -116 -41 -122 -32 -8 12 -10 117 -2 117 3 0 4 11 1
25 -2 14 -8 25 -13 25 -5 0 -9 5 -9 11 0 6 7 8 16 5 12 -5 14 -1 8 17 -5 12
-7 31 -6 42 0 11 3 61 5 110 2 50 6 97 10 105 23 61 67 225 63 237 -3 8 -2 12
3 9 4 -3 13 6 19 19 7 14 8 25 3 25 -13 0 -11 100 3 154 14 56 4 116 -28 153
-10 12 -32 55 -48 95 -15 40 -33 82 -38 93 -32 70 -50 116 -50 128 0 8 -8 38
-19 68 -38 111 -53 580 -21 688 5 19 7 37 5 41 -8 12 7 70 16 65 4 -3 6 14 4
37 -2 23 -1 46 3 52 4 6 7 18 8 26 1 30 17 95 26 107 5 7 7 17 3 23 -3 5 -2
10 3 10 5 0 14 19 21 43 7 23 17 50 22 59 5 10 9 25 9 33 0 8 4 23 9 33 13 25
29 81 36 128 7 49 25 101 45 130 12 19 17 20 44 11 17 -5 43 -20 58 -31z
m3193 -3002 c15 -8 41 -14 59 -14 39 -1 66 -21 66 -49 0 -11 5 -21 10 -21 6 0
10 -10 10 -22 0 -12 4 -35 10 -52 24 -76 60 -236 60 -265 0 -18 5 -42 11 -54
9 -16 9 -22 0 -25 -6 -2 -11 -10 -11 -18 0 -8 -4 -14 -8 -14 -4 0 -25 -16 -46
-35 -21 -19 -42 -35 -47 -35 -4 0 -25 -17 -46 -38 -50 -51 -113 -85 -113 -62
0 4 -11 11 -24 14 -28 7 -34 30 -45 196 -5 63 -12 132 -16 153 -5 22 -4 47 2
60 18 38 33 116 33 167 0 27 5 52 10 55 6 3 10 21 10 40 0 35 28 64 41 44 3
-6 18 -17 34 -25z m-580 -23 c10 -16 23 -27 27 -25 4 3 8 0 8 -5 0 -7 50 -11
145 -11 137 0 145 -1 145 -19 0 -11 4 -22 9 -25 10 -7 18 -46 32 -171 10 -91
9 -378 -2 -389 -3 -3 -37 -13 -75 -22 -38 -9 -78 -20 -89 -25 -11 -4 -31 -9
-45 -11 -24 -3 -25 0 -32 62 -15 152 -19 187 -28 215 -5 17 -13 66 -18 111 -9
81 -27 134 -48 141 -25 8 -32 -105 -13 -217 14 -83 20 -309 7 -286 -5 9 -16
16 -23 16 -8 0 -15 4 -15 8 0 5 -12 15 -27 22 -33 16 -141 97 -164 122 -9 9
-28 22 -42 27 -27 10 -35 37 -19 57 5 5 14 29 21 54 7 25 24 70 36 100 13 30
30 72 37 93 6 20 16 37 20 37 4 0 8 13 8 30 0 16 8 39 18 51 41 51 59 68 65
62 4 -3 7 1 7 10 0 27 33 19 55 -12z m310 -1401 l-20 -9 20 -1 c11 -2 26 -2
33 -1 6 1 12 -4 12 -11 0 -9 3 -9 10 2 15 24 25 2 13 -30 -9 -23 -8 -28 3 -23
8 3 14 17 14 31 0 38 7 23 14 -30 4 -26 9 -55 12 -63 4 -8 1 -22 -6 -30 -6 -8
-8 -20 -4 -26 4 -7 8 -35 10 -63 17 -363 5 -760 -24 -784 -20 -15 -72 -12 -72
5 0 7 -4 13 -10 13 -5 0 -10 11 -10 24 0 14 -4 28 -10 31 -6 4 -7 -1 -3 -10 4
-13 1 -16 -16 -13 -12 1 -21 7 -21 12 1 5 -4 13 -12 17 -10 7 -10 9 0 9 6 0
12 5 12 11 0 5 -5 7 -10 4 -6 -3 -14 4 -19 17 -7 21 -9 19 -13 -14 -2 -20 0
-34 4 -32 4 3 8 0 8 -5 0 -6 -5 -11 -12 -11 -9 0 -9 -3 0 -12 17 -17 15 -33
-3 -18 -10 8 -15 29 -15 59 1 25 -2 105 -6 177 -3 72 -3 256 1 408 l7 278 24
-5 c14 -2 27 0 30 4 3 5 -6 9 -19 9 -20 0 -24 4 -20 20 3 11 13 20 23 20 20 0
53 33 43 43 -3 4 7 7 23 6 25 0 26 -2 9 -9z m-95 -15 c0 -8 -4 -15 -10 -15 -5
0 -10 7 -10 15 0 8 5 15 10 15 6 0 10 -7 10 -15z m309 -277 c0 -31 -1 -31 -10
-10 -5 13 -7 28 -3 33 10 16 14 9 13 -23z m-383 -110 c5 -35 9 -140 9 -234 0
-154 -2 -174 -19 -193 -14 -15 -18 -34 -17 -75 1 -39 -3 -55 -14 -60 -8 -3
-17 -1 -21 5 -3 6 -11 8 -18 6 -19 -8 -16 32 3 43 21 11 34 57 19 66 -6 4 -5
11 1 17 9 9 1 14 -26 22 -33 10 -38 15 -35 38 2 18 -2 26 -10 25 -8 -2 -14 8
-16 23 -3 25 12 68 58 164 11 22 23 60 26 85 4 25 11 48 16 51 5 3 12 25 15
47 8 56 18 45 29 -30z m391 19 c2 -24 9 -45 18 -50 8 -4 15 -18 15 -29 0 -21
0 -21 -15 -2 -12 16 -14 17 -15 2 0 -9 -3 -18 -7 -21 -5 -2 -3 -2 4 -1 8 2 10
-9 6 -34 l-6 -37 20 23 c28 31 36 28 31 -13 -2 -19 0 -35 4 -35 4 0 5 -21 1
-47 -6 -42 -4 -46 12 -40 14 6 16 3 12 -13 -3 -11 -1 -18 4 -14 5 3 9 -9 9
-26 0 -17 4 -29 9 -26 11 7 21 -17 21 -49 0 -29 30 -103 91 -229 16 -33 29
-65 29 -73 0 -7 4 -21 9 -31 5 -9 21 -44 36 -77 14 -33 33 -71 41 -85 8 -14
18 -33 21 -42 3 -10 9 -18 14 -18 5 0 9 -5 9 -12 0 -6 11 -26 25 -44 14 -18
25 -36 25 -39 0 -4 13 -25 28 -48 50 -74 50 -77 -13 -119 -67 -44 -230 -107
-243 -93 -10 10 -2 197 9 217 14 26 14 187 0 201 -6 6 -11 19 -11 29 0 10 -12
25 -27 35 -16 10 -30 20 -33 23 -3 3 -18 12 -35 20 -16 8 -32 17 -35 20 -13
13 -83 40 -104 40 -52 0 -54 22 -37 360 6 130 15 226 21 228 6 2 10 12 10 23
0 10 3 19 8 19 4 0 8 30 9 66 2 101 24 131 30 41z m-6667 -296 c-8 -50 -17
-91 -21 -91 -3 0 -9 -25 -12 -56 -3 -30 -13 -67 -23 -81 -9 -15 -18 -53 -20
-91 -3 -36 -10 -72 -16 -79 -11 -13 -23 -98 -32 -218 -2 -27 -13 -74 -25 -104
-11 -30 -18 -57 -16 -61 3 -4 -1 -27 -8 -51 -10 -33 -15 -40 -20 -26 -3 9 -2
17 3 17 6 0 10 5 10 11 0 5 -4 8 -9 4 -5 -3 -12 -1 -16 5 -3 6 0 13 9 16 10 4
14 19 12 55 -1 27 -6 52 -9 56 -7 7 -11 -10 -7 -41 1 -11 -3 -15 -9 -12 -6 4
-11 2 -11 -3 0 -6 -4 -11 -10 -11 -5 0 -10 7 -10 15 0 8 -5 15 -10 15 -7 0 -8
-13 -4 -35 4 -23 2 -35 -5 -35 -6 0 -12 17 -12 38 -5 139 -4 164 9 174 10 9
11 13 0 19 -24 16 -28 9 -28 -50 0 -63 -16 -85 -35 -48 -15 29 -110 59 -162
51 -24 -3 -43 -10 -43 -15 0 -5 -6 -9 -14 -9 -19 0 -26 47 -9 62 12 10 11 14
-9 24 -31 18 -48 17 -48 -1 0 -22 -16 -18 -38 10 -11 14 -25 25 -31 25 -6 0
-11 5 -11 10 0 6 -18 10 -40 10 -36 0 -40 -2 -40 -26 0 -16 -5 -24 -12 -21 -9
2 -12 20 -10 55 4 47 2 52 -17 52 -18 0 -21 -6 -21 -40 0 -50 -20 -53 -57 -10
-19 23 -31 29 -46 24 -20 -6 -20 -6 -4 10 23 24 22 29 -14 45 -26 11 -33 11
-40 0 -4 -7 -11 -10 -16 -5 -4 4 0 12 10 17 9 6 15 15 12 20 -4 5 -10 7 -15 4
-10 -6 -30 56 -30 91 0 11 -11 31 -25 44 -23 21 -27 22 -70 10 -45 -13 -49
-19 -45 -67 1 -13 -2 -23 -7 -23 -4 0 -14 -13 -21 -30 -13 -28 -52 -43 -52
-20 0 6 -6 10 -14 10 -7 0 -16 10 -19 21 -5 20 -10 21 -63 14 l-57 -7 7 26 c6
26 -7 37 -18 14 -3 -7 -4 0 0 16 3 18 0 32 -8 37 -7 4 -9 12 -4 16 5 4 11 2
13 -4 3 -7 12 -13 22 -13 9 0 22 -5 28 -11 7 -7 12 -2 15 20 3 20 0 31 -8 31
-15 0 -25 25 -18 45 7 18 9 18 33 3 11 -6 26 -8 37 -3 17 7 17 8 2 12 -29 7 1
43 35 43 15 0 40 6 56 14 20 11 38 12 67 6 21 -5 49 -7 61 -5 13 3 34 7 48 10
17 4 25 1 25 -9 0 -18 22 -26 49 -19 12 3 21 1 21 -5 0 -5 26 -10 58 -10 63
-1 101 -5 182 -22 76 -16 193 -13 237 5 19 8 44 15 55 15 10 0 21 7 24 15 4 8
12 15 19 15 7 0 18 7 25 15 7 9 26 14 43 13 17 -1 32 3 35 10 2 6 13 12 25 12
19 1 17 3 -8 14 l-30 13 38 17 c31 15 44 17 79 8 46 -12 78 -2 78 25 0 10 6
14 20 10 11 -3 20 0 21 6 0 8 2 8 6 0 8 -22 26 -14 20 8 -8 28 2 54 16 40 7
-7 6 -39 -3 -100z m6110 -321 c11 -5 29 -14 40 -20 11 -5 29 -10 40 -10 11 0
20 -3 20 -8 0 -4 16 -16 35 -26 19 -11 35 -23 35 -28 0 -4 5 -8 11 -8 11 0 52
-32 122 -93 15 -13 27 -29 27 -36 0 -6 5 -11 10 -11 6 0 10 -54 10 -142 0 -79
5 -211 12 -294 11 -140 10 -153 -6 -169 -14 -15 -21 -15 -46 -5 -17 7 -30 16
-30 21 0 5 -9 9 -20 9 -11 0 -20 5 -20 10 0 6 -4 10 -9 10 -5 0 -22 5 -38 12
-15 6 -35 12 -43 14 -8 2 -16 8 -18 13 -2 6 -10 11 -17 11 -7 0 -15 3 -17 8
-1 4 -51 31 -109 59 -59 29 -112 60 -120 69 -7 9 -23 20 -35 24 -11 5 -46 27
-77 51 -46 33 -57 48 -57 70 0 15 4 31 10 34 5 3 21 32 36 63 14 31 29 65 35
74 5 10 9 26 9 36 0 16 39 103 81 184 5 10 9 25 9 33 0 34 24 55 63 55 20 0
46 -4 57 -10z m-6800 -230 c0 -5 -5 -10 -11 -10 -5 0 -7 5 -4 10 3 6 8 10 11
10 2 0 4 -4 4 -10z"/>
<path d="M10248 11153 c6 -2 18 -2 25 0 6 3 1 5 -13 5 -14 0 -19 -2 -12 -5z"/>
<path d="M6625 10732 c-33 -1 -67 -5 -75 -8 -40 -16 44 -23 280 -22 153 0 243
3 225 8 -35 10 -295 31 -340 27 -16 -1 -57 -3 -90 -5z"/>
<path d="M9970 10710 c-83 -9 -230 -42 -230 -52 0 -4 -10 -8 -22 -8 -17 0 -19
-3 -10 -12 9 -9 18 -9 37 0 14 7 34 12 43 12 9 0 30 7 46 15 43 23 414 21 485
-2 55 -17 75 -12 49 13 -25 25 -276 47 -398 34z"/>
<path d="M7135 10690 c11 -5 36 -8 55 -8 32 0 33 1 10 8 -14 4 -38 8 -55 8
-25 1 -27 -1 -10 -8z"/>
<path d="M7265 10658 c17 -5 39 -13 50 -18 22 -9 99 -30 109 -30 3 0 6 5 6 10
0 6 -8 10 -18 10 -10 0 -22 3 -26 7 -13 14 -82 33 -116 32 l-35 -1 30 -10z"/>
<path d="M9620 10613 c-29 -13 -32 -17 -15 -21 10 -2 21 1 23 7 2 6 10 11 18
11 8 0 14 5 14 10 0 12 2 13 -40 -7z"/>
<path d="M6568 10604 c-4 -3 -32 -12 -65 -19 -32 -7 -76 -19 -98 -25 -22 -6
-52 -14 -67 -17 -16 -3 -28 -9 -28 -14 0 -5 -7 -9 -15 -9 -14 0 -61 -25 -75
-40 -3 -3 -41 -22 -85 -44 -86 -42 -157 -86 -247 -154 -51 -38 -56 -45 -48
-66 11 -31 4 -57 -37 -129 -18 -32 -33 -65 -33 -73 0 -8 -4 -14 -10 -14 -5 0
-10 -7 -10 -15 0 -8 -6 -24 -12 -35 -9 -14 -9 -23 -2 -30 8 -8 19 -1 38 25 33
43 46 44 46 5 0 -16 3 -30 6 -30 9 0 34 28 34 38 0 5 20 26 45 48 24 21 45 45
45 52 0 6 4 12 10 12 5 0 27 16 47 35 20 19 41 35 46 35 5 0 18 9 27 20 24 28
32 12 19 -35 -15 -53 0 -351 20 -400 5 -11 18 -51 30 -88 11 -38 37 -92 56
-121 19 -29 35 -57 35 -62 0 -5 14 -24 30 -43 17 -18 30 -37 30 -42 0 -20 35
-39 72 -39 23 0 57 -9 80 -22 32 -18 42 -20 58 -10 28 17 38 15 71 -13 27 -22
59 -25 59 -4 0 18 86 10 108 -11 26 -25 32 -25 32 -2 0 23 39 42 87 42 49 0
150 20 190 36 17 8 43 14 57 14 29 0 37 27 11 36 -23 9 -18 29 19 81 52 75
106 182 106 212 0 15 4 31 9 36 7 8 20 167 23 305 1 50 -13 172 -23 191 -4 8
-4 21 0 28 7 11 15 10 42 -2 19 -9 43 -18 55 -21 11 -4 29 -14 40 -24 28 -25
92 -72 98 -72 3 0 6 7 6 15 0 8 -4 15 -10 15 -12 0 -24 45 -15 60 4 7 13 5 28
-5 12 -8 25 -15 29 -15 23 0 0 32 -67 97 -41 40 -75 75 -75 78 0 12 42 3 74
-16 31 -18 36 -19 36 -5 0 9 -10 18 -23 21 -13 4 -31 17 -41 31 -11 13 -24 24
-30 24 -6 0 -22 9 -36 20 -14 11 -31 20 -38 20 -7 0 -29 11 -50 23 -20 13 -55
30 -77 37 -22 7 -49 16 -60 20 -11 4 -47 16 -80 25 -33 10 -70 22 -83 26 -25
10 -405 13 -414 3z m310 -566 c7 -7 12 -22 12 -35 0 -19 -5 -23 -29 -23 -36 0
-48 26 -25 51 20 22 26 23 42 7z m316 -173 c-1 -115 -39 -258 -75 -280 -5 -4
-9 -17 -9 -31 0 -13 -4 -24 -8 -24 -5 0 -19 -20 -32 -45 -13 -25 -26 -45 -30
-45 -4 0 -10 -9 -13 -19 -7 -30 -106 -56 -207 -54 -93 1 -302 27 -365 44 -57
16 -123 49 -129 65 -3 8 -12 14 -19 14 -24 0 -67 40 -67 64 0 12 -7 32 -16 44
-8 12 -24 54 -35 94 -21 77 -18 125 9 136 10 3 36 21 60 39 67 51 94 43 107
-32 13 -71 18 -75 94 -75 62 0 70 -2 85 -25 23 -35 21 -94 -5 -121 -24 -26
-20 -32 36 -69 45 -28 231 -27 297 2 50 23 138 102 138 124 0 8 7 24 15 35 14
21 43 106 65 196 13 49 24 57 75 55 l30 -2 -1 -90z"/>
<path d="M7434 10598 c-3 -4 7 -8 21 -8 14 0 35 -9 47 -20 26 -24 40 -26 32
-5 -4 8 -12 15 -20 15 -8 0 -14 4 -14 9 0 12 -59 20 -66 9z"/>
<path d="M9965 10560 c-77 -9 -120 -17 -150 -30 -11 -4 -36 -14 -55 -22 -19
-8 -51 -21 -70 -28 -68 -25 -90 -35 -90 -42 0 -5 -7 -8 -16 -8 -15 0 -64 -24
-89 -43 -5 -4 -31 -21 -57 -37 -26 -16 -52 -38 -58 -49 -10 -19 -8 -21 19 -21
46 0 46 -16 2 -71 -23 -29 -41 -61 -41 -72 0 -18 1 -19 23 -3 12 9 29 19 37
23 8 4 19 11 23 17 6 8 10 7 14 -1 7 -19 45 -15 73 7 34 26 70 26 70 0 0 -11
-4 -20 -9 -20 -14 0 -20 -110 -11 -200 5 -47 12 -120 16 -163 4 -43 11 -80 16
-83 4 -3 8 -17 9 -32 0 -15 8 -46 18 -70 17 -42 31 -47 31 -10 0 10 5 18 10
18 6 0 10 16 10 35 0 19 -4 35 -10 35 -5 0 -10 8 -10 18 0 10 -5 23 -10 28 -6
6 -13 39 -16 75 -7 74 1 87 57 90 40 3 59 -6 59 -27 0 -8 5 -14 10 -14 6 0 10
-13 10 -29 0 -43 23 -56 94 -53 55 3 63 1 84 -22 16 -19 22 -39 22 -74 0 -26
-5 -53 -11 -59 -19 -19 -5 -56 29 -76 66 -38 189 -32 257 13 17 11 39 25 50
32 47 31 103 117 131 202 21 64 30 76 60 76 23 0 24 -2 24 -85 0 -47 -4 -93
-9 -103 -5 -9 -17 -37 -26 -62 -26 -68 -38 -90 -47 -90 -4 0 -8 -6 -8 -13 0
-7 -10 -23 -23 -37 -13 -14 -26 -32 -29 -41 -3 -9 -23 -24 -45 -35 -33 -16
-63 -18 -233 -18 -206 0 -239 7 -272 52 -13 19 -108 57 -108 44 0 -4 9 -18 20
-32 21 -27 26 -50 10 -50 -5 0 -10 -4 -10 -9 0 -5 26 -17 57 -26 32 -9 70 -25
84 -36 22 -15 45 -19 111 -19 70 0 88 -3 106 -20 26 -24 50 -26 48 -3 -1 20
37 30 144 37 41 3 93 12 115 20 22 8 49 15 60 16 19 1 19 1 3 14 -10 7 -18 17
-18 22 0 13 94 198 103 202 4 2 7 13 7 23 0 11 5 29 11 40 16 30 39 125 39
160 0 17 5 40 12 52 15 28 12 265 -3 283 -9 11 -7 14 10 14 19 0 105 -78 157
-141 15 -19 67 -59 75 -59 14 0 16 27 3 44 -7 11 -11 23 -8 27 10 18 13 49 3
54 -16 10 -11 65 6 65 8 0 15 -4 15 -10 0 -5 9 -10 20 -10 11 0 20 6 20 13 0
17 -154 174 -179 182 -12 3 -21 10 -21 14 0 4 -16 13 -35 21 -19 8 -35 16 -35
20 0 3 -20 14 -45 25 -25 11 -45 23 -45 26 0 3 -16 11 -35 19 -19 8 -35 16
-35 20 0 14 -119 60 -156 60 -11 0 -24 4 -29 9 -14 13 -255 21 -340 11z m270
-560 c8 -27 -1 -40 -30 -40 -25 0 -38 21 -29 45 9 22 51 19 59 -5z"/>
<path d="M4550 9896 c-14 -8 -37 -19 -52 -25 -25 -9 -28 -16 -27 -53 1 -24 4
-54 8 -68 6 -21 9 -16 16 30 12 88 15 90 125 90 61 0 100 -4 108 -12 18 -18
15 -46 -9 -71 -11 -12 -30 -35 -42 -51 -12 -15 -32 -39 -44 -52 -13 -12 -23
-28 -23 -34 0 -5 -4 -10 -10 -10 -5 0 -10 -10 -10 -22 0 -17 21 1 98 80 101
107 129 122 150 80 10 -22 11 -22 11 -3 1 11 -8 27 -19 35 -11 8 -20 20 -20
26 0 7 -16 26 -35 43 -34 29 -40 31 -118 31 -50 0 -92 -6 -107 -14z"/>
<path d="M4860 9750 c0 -5 5 -10 11 -10 5 0 7 5 4 10 -3 6 -8 10 -11 10 -2 0
-4 -4 -4 -10z"/>
<path d="M4880 9720 c0 -5 5 -10 10 -10 6 0 10 5 10 10 0 6 -4 10 -10 10 -5 0
-10 -4 -10 -10z"/>
<path d="M4571 9604 c0 -11 3 -14 6 -6 3 7 2 16 -1 19 -3 4 -6 -2 -5 -13z"/>
<path d="M5710 9482 c0 -15 25 -62 33 -62 10 0 9 2 -9 38 -15 31 -24 40 -24
24z"/>
<path d="M4750 9365 c0 -8 -4 -15 -10 -15 -5 0 -10 -10 -9 -22 l0 -23 9 22 c5
12 19 24 31 28 17 6 19 9 8 16 -20 13 -29 11 -29 -6z"/>
<path d="M4863 9363 c9 -2 25 -2 35 0 9 3 1 5 -18 5 -19 0 -27 -2 -17 -5z"/>
<path d="M5037 9364 c-3 -4 -27 -8 -53 -10 -57 -4 -65 -10 -26 -19 47 -10 76
-47 68 -87 -4 -18 -11 -85 -16 -148 -5 -63 -12 -125 -15 -137 -3 -12 -1 -25 5
-28 5 -3 10 -13 10 -20 0 -17 31 -49 118 -123 34 -30 62 -60 62 -67 0 -7 3
-15 8 -17 4 -1 19 -26 33 -55 38 -75 26 -85 -58 -42 -37 18 -69 37 -71 42 -2
4 -12 7 -22 7 -10 0 -20 3 -22 8 -1 4 -25 19 -53 33 -71 36 -96 52 -119 71
-11 10 -28 20 -38 24 -10 3 -18 10 -18 15 0 5 -6 9 -14 9 -8 0 -23 11 -34 25
-11 14 -24 25 -29 25 -5 0 -16 11 -23 25 -7 14 -17 25 -22 25 -4 0 -8 7 -8 15
0 8 -4 15 -8 15 -5 0 -15 19 -23 43 -17 52 -16 46 -18 113 l-1 57 -20 -26
c-28 -36 -26 -102 6 -176 15 -34 31 -61 35 -61 5 0 9 -5 9 -10 0 -6 8 -19 18
-29 24 -24 151 -111 162 -111 6 0 10 -4 10 -10 0 -5 7 -10 15 -10 8 0 15 -4
15 -10 0 -5 9 -10 20 -10 11 0 20 -4 20 -8 0 -9 39 -31 98 -54 17 -7 32 -16
32 -19 0 -4 19 -11 43 -17 27 -7 62 -29 99 -62 70 -62 92 -66 84 -12 -13 87
-19 112 -27 118 -5 3 -9 12 -9 19 0 18 -51 94 -63 95 -5 0 -21 12 -37 28 -15
15 -43 41 -62 57 -48 43 -62 95 -54 202 16 226 18 281 9 297 -5 9 -12 14 -16
10z"/>
<path d="M4696 9277 c-10 -20 -16 -41 -13 -49 3 -9 7 -7 13 7 4 11 12 23 17
26 5 4 7 16 5 28 -3 20 -5 19 -22 -12z"/>
<path d="M10647 8862 c-10 -10 -17 -25 -17 -33 0 -8 10 -2 25 15 14 16 25 31
25 33 0 9 -19 1 -33 -15z"/>
<path d="M8711 8765 c0 -38 2 -46 10 -33 6 11 6 29 0 50 -9 32 -9 31 -10 -17z"/>
<path d="M10520 8684 c0 -8 5 -12 10 -9 6 3 10 10 10 16 0 5 -4 9 -10 9 -5 0
-10 -7 -10 -16z"/>
<path d="M10470 8631 c0 -6 5 -13 10 -16 6 -3 10 1 10 9 0 9 -4 16 -10 16 -5
0 -10 -4 -10 -9z"/>
<path d="M6230 8583 c0 -16 31 -53 43 -52 9 0 9 2 0 6 -7 2 -13 9 -13 15 0 5
-7 16 -15 24 -8 9 -15 12 -15 7z"/>
<path d="M10430 8569 c0 -5 5 -7 10 -4 6 3 10 8 10 11 0 2 -4 4 -10 4 -5 0
-10 -5 -10 -11z"/>
<path d="M10340 8470 c0 -5 5 -10 10 -10 6 0 10 5 10 10 0 6 -4 10 -10 10 -5
0 -10 -4 -10 -10z"/>
<path d="M8631 7363 c38 -47 45 -53 64 -53 29 0 47 14 40 31 -6 17 -60 39 -94
39 -21 0 -22 -2 -10 -17z"/>
<path d="M8197 7353 c-4 -4 -31 -10 -60 -15 -106 -18 -117 -20 -123 -29 -3 -5
37 -9 89 -9 79 0 98 3 120 20 14 11 32 20 41 20 9 0 16 5 16 10 0 11 -73 14
-83 3z"/>
<path d="M11441 9778 c-12 -12 -23 -30 -27 -40 -3 -10 -10 -18 -15 -18 -5 0
-9 -9 -9 -21 0 -11 -4 -17 -10 -14 -5 3 -10 0 -10 -8 0 -8 -16 -43 -35 -77
-19 -34 -35 -68 -35 -75 0 -8 -4 -16 -9 -19 -5 -3 -11 -21 -13 -40 -3 -24 0
-32 9 -29 7 3 13 16 13 29 0 13 5 24 10 24 6 0 10 7 10 15 0 17 24 59 52 89
10 11 18 25 18 31 0 17 26 67 47 90 25 28 44 73 33 80 -5 3 -18 -4 -29 -17z"/>
<path d="M11468 9714 c-6 -9 -28 -191 -28 -235 0 -32 29 -21 35 14 8 43 2 235
-7 221z"/>
<path d="M7947 1874 c-8 -8 1 -24 14 -24 5 0 9 7 9 15 0 15 -12 20 -23 9z"/>
<path d="M640 1989 c0 -5 5 -7 10 -4 6 3 10 8 10 11 0 2 -4 4 -10 4 -5 0 -10
-5 -10 -11z"/>
<path d="M412 1898 c-7 -7 -12 -22 -12 -35 0 -20 5 -23 34 -23 26 0 36 -5 41
-20 3 -11 15 -20 25 -20 13 0 17 5 13 20 -3 11 -9 21 -14 21 -5 1 -13 3 -19 4
-5 1 -13 3 -17 4 -5 1 -1 6 7 12 12 8 12 9 -5 7 -11 -2 -20 2 -20 9 0 22 -20
34 -33 21z"/>
<path d="M1500 1531 c0 -17 5 -33 10 -36 6 -4 10 8 10 29 0 20 -4 36 -10 36
-5 0 -10 -13 -10 -29z"/>
<path d="M5610 4425 c-25 -13 -54 -31 -65 -40 -10 -8 -22 -15 -27 -15 -4 0
-24 -11 -44 -25 -20 -14 -46 -25 -56 -25 -11 0 -56 -20 -100 -45 -44 -25 -84
-45 -88 -45 -4 0 -38 -16 -76 -37 -38 -20 -85 -44 -105 -54 -19 -10 -41 -25
-49 -33 -7 -9 -21 -16 -31 -16 -11 0 -19 -5 -19 -11 0 -5 -4 -8 -8 -5 -7 4
-71 -22 -82 -34 -3 -3 -24 -14 -47 -24 -24 -11 -43 -23 -43 -28 0 -4 -5 -8
-10 -8 -14 0 -100 -40 -130 -61 -14 -9 -61 -35 -105 -58 -44 -22 -100 -54
-125 -71 -25 -16 -53 -30 -62 -30 -10 0 -18 -3 -18 -7 0 -5 -18 -17 -40 -27
-22 -10 -48 -27 -59 -37 -11 -11 -25 -19 -31 -19 -12 0 -151 -70 -160 -81 -3
-3 -31 -13 -62 -23 -32 -10 -60 -22 -64 -27 -3 -5 -16 -9 -30 -9 -13 0 -24 -4
-24 -8 0 -4 -28 -16 -62 -25 -81 -23 -188 -56 -213 -66 -48 -19 -187 -62 -265
-81 -47 -12 -94 -25 -105 -29 -11 -5 -40 -14 -65 -21 -25 -7 -54 -16 -65 -20
-11 -4 -49 -16 -85 -25 -64 -17 -99 -29 -132 -46 -10 -5 -31 -9 -48 -9 -16 0
-30 -4 -30 -10 0 -5 -7 -10 -16 -10 -8 0 -40 -11 -70 -25 -30 -14 -63 -25 -74
-25 -11 0 -20 -4 -20 -8 0 -5 -19 -15 -43 -22 -51 -15 -97 -37 -129 -62 l-23
-18 25 0 c14 0 66 20 115 45 50 24 97 45 106 45 8 0 19 4 25 9 5 5 47 21 94
36 47 15 93 31 102 36 10 5 33 9 52 9 19 0 38 5 41 10 3 6 14 10 23 10 9 0 30
7 46 15 15 8 37 15 47 15 10 0 21 5 24 10 3 6 17 10 30 10 13 0 26 4 29 9 3 5
20 11 38 14 18 2 58 12 88 21 30 10 67 20 83 23 15 3 27 9 27 14 0 5 13 9 29
9 27 0 74 12 116 30 11 5 36 12 55 16 19 3 40 10 45 14 6 4 31 13 58 20 26 7
50 17 53 21 3 5 21 9 40 9 19 0 34 5 34 10 0 6 13 10 29 10 17 0 33 5 36 10 3
6 16 10 29 10 12 0 31 7 42 15 10 8 27 15 37 15 9 0 17 5 17 10 0 6 5 10 10
10 13 0 103 42 110 51 3 3 16 10 30 14 14 4 27 10 30 14 8 10 49 31 60 31 5 0
34 15 63 34 57 36 88 55 177 102 30 16 57 31 60 34 3 3 19 12 35 20 17 8 32
18 35 21 3 3 19 13 35 21 166 85 212 108 223 108 6 0 12 5 12 10 0 6 9 10 20
10 11 0 20 5 20 10 0 6 9 10 20 10 11 0 20 5 20 10 0 6 6 10 13 10 7 0 30 12
52 27 53 36 230 125 283 142 23 8 42 18 42 22 0 4 10 11 23 14 12 4 64 27 115
52 107 52 128 51 117 -5 -4 -20 -10 -41 -14 -47 -5 -5 -16 -35 -26 -65 -9 -30
-21 -63 -26 -72 -5 -10 -9 -27 -9 -37 0 -11 -4 -23 -10 -26 -5 -3 -10 -14 -10
-24 0 -9 -11 -41 -25 -69 -14 -29 -25 -61 -25 -72 0 -11 -4 -20 -10 -20 -5 0
-10 -11 -10 -24 0 -14 -4 -28 -10 -31 -5 -3 -10 -19 -10 -34 0 -16 -11 -54
-25 -85 -25 -57 -33 -116 -16 -116 22 0 41 13 41 28 0 15 15 66 31 107 4 11
15 43 25 70 9 28 21 54 26 59 4 6 8 27 8 48 0 21 5 38 10 38 6 0 10 9 10 19 0
11 5 23 10 26 6 3 10 14 10 24 0 10 11 39 25 65 14 26 25 56 25 67 0 11 5 17
10 14 6 -4 10 5 10 20 0 14 4 33 9 43 23 43 54 157 56 202 0 24 -45 21 -95 -5z"/>
<path d="M2350 3007 c-56 -27 -69 -40 -59 -59 5 -10 14 -18 20 -18 13 0 39
-25 39 -38 0 -5 7 -16 16 -23 9 -7 20 -22 25 -34 5 -11 22 -41 38 -66 30 -48
124 -255 136 -299 9 -34 58 -134 67 -138 4 -2 8 -17 8 -33 0 -16 5 -29 10 -29
6 0 10 -6 10 -14 0 -17 32 -80 43 -84 4 -2 7 -10 7 -18 0 -24 24 -94 32 -94 5
0 8 -10 8 -21 0 -18 45 -114 60 -129 3 -3 15 -32 26 -65 41 -115 59 -160 67
-163 4 -2 7 -10 7 -18 0 -8 4 -22 9 -32 5 -9 17 -42 26 -72 17 -53 36 -97 76
-185 l18 -40 1 37 c0 21 -9 53 -19 72 -19 34 -76 184 -91 241 -18 68 -44 133
-76 192 -19 34 -34 73 -34 87 0 14 -4 26 -10 26 -5 0 -10 7 -10 15 0 8 -4 23
-9 33 -4 9 -21 44 -36 77 -15 33 -31 68 -36 77 -5 10 -9 25 -9 34 0 9 -27 71
-59 138 -33 66 -67 144 -76 171 -17 53 -78 190 -95 215 -6 8 -13 23 -16 33 -4
9 -10 17 -14 17 -5 0 -11 9 -15 20 -3 10 -24 41 -46 67 -21 26 -39 56 -39 66
0 20 22 47 39 47 6 0 11 5 11 10 0 13 -18 12 -50 -3z"/>
<path d="M12607 2920 c-4 -14 -7 -50 -7 -81 0 -31 -4 -101 -9 -155 -5 -55 -15
-162 -21 -239 -6 -77 -16 -180 -22 -230 -5 -49 -14 -133 -19 -185 -4 -52 -13
-133 -19 -180 -6 -47 -15 -139 -20 -205 -9 -108 -18 -191 -50 -440 -6 -44 -15
-105 -20 -135 -4 -30 -13 -84 -19 -120 -5 -36 -17 -103 -26 -150 -23 -120 -34
-182 -44 -242 -15 -93 -35 -116 -45 -50 -7 51 -24 195 -31 262 -15 141 -40
343 -50 390 -6 30 -25 150 -30 200 -3 19 -7 41 -10 48 -3 8 -8 92 -10 186 -12
397 -24 604 -36 612 -13 8 -18 -67 -25 -366 -3 -157 -10 -334 -15 -395 -5 -60
-14 -171 -19 -245 -5 -74 -14 -198 -20 -275 -6 -77 -14 -225 -19 -330 -11
-221 -28 -434 -41 -520 -6 -33 -10 -63 -10 -67 0 -5 81 -8 180 -8 l181 0 -3
148 c-2 96 1 157 8 173 14 29 60 226 68 289 3 25 10 70 16 100 6 30 14 89 20
130 5 41 16 116 25 165 28 162 38 241 64 545 6 63 15 151 20 195 18 136 47
452 70 750 17 214 9 496 -12 425z"/>
<path d="M4455 1856 c-2 -12 -6 -34 -9 -51 -3 -16 -10 -52 -16 -80 -5 -27 -16
-88 -24 -135 -22 -131 -35 -185 -46 -188 -6 -2 -10 -11 -10 -21 0 -9 -7 -26
-15 -37 -8 -12 -12 -24 -9 -27 6 -6 -47 -170 -57 -177 -4 -3 -12 -23 -18 -45
-5 -22 -14 -56 -20 -75 -5 -19 -19 -71 -31 -115 -38 -147 -51 -190 -64 -215
-8 -14 -17 -41 -21 -60 -4 -19 -14 -46 -22 -59 -9 -13 -21 -49 -29 -80 -7 -31
-22 -90 -33 -131 -26 -92 -36 -205 -27 -294 l8 -66 156 2 157 3 2 260 c1 143
6 296 12 340 28 212 34 256 48 335 14 83 25 170 38 320 3 41 10 84 15 95 5 11
11 58 14 105 3 47 10 121 15 165 6 44 13 119 17 166 6 76 5 86 -10 86 -9 0
-18 -10 -21 -21z"/>
<path d="M3040 1311 c0 -10 11 -44 25 -75 14 -31 25 -63 25 -71 0 -9 4 -23 9
-33 18 -33 54 -118 71 -165 9 -26 20 -50 23 -54 4 -3 7 -16 7 -28 0 -11 4 -25
9 -31 4 -5 17 -31 27 -59 10 -27 26 -65 36 -83 10 -18 18 -38 18 -46 0 -13 40
-119 63 -166 17 -35 35 -52 48 -45 11 7 3 64 -12 79 -5 6 -9 20 -9 32 0 13 -4
26 -10 29 -5 3 -10 15 -10 26 0 10 -4 27 -9 37 -5 9 -12 24 -15 32 -4 8 -15
29 -25 45 -11 17 -20 40 -20 52 -1 12 -5 25 -11 28 -5 3 -10 14 -10 25 0 15
-22 68 -61 142 -5 10 -9 29 -9 43 0 14 -4 25 -10 25 -5 0 -10 8 -10 18 0 10
-4 22 -8 27 -5 6 -17 33 -27 60 -10 28 -21 52 -24 55 -12 10 -31 50 -31 65 0
16 -30 55 -42 55 -5 0 -8 -8 -8 -19z"/>
<path d="M11776 1074 c-6 -16 9 -320 25 -492 6 -62 15 -172 20 -245 10 -133
26 -330 28 -334 1 -2 17 -3 36 -3 31 0 35 2 30 23 -12 57 -56 502 -70 707 -9
152 -38 349 -51 354 -7 3 -15 -2 -18 -10z"/>
<path d="M12837 878 c-20 -66 -27 -105 -34 -188 -2 -36 -9 -69 -14 -75 -5 -5
-9 -20 -9 -34 0 -14 -5 -50 -10 -80 -24 -131 -40 -252 -40 -294 0 -25 -4 -49
-10 -52 -5 -3 -10 -21 -10 -39 0 -17 -4 -36 -9 -41 -5 -6 -12 -25 -16 -42 -6
-32 -6 -33 28 -33 l35 0 7 73 c4 39 14 108 22 152 8 44 18 105 23 135 16 109
29 187 46 290 20 121 29 280 17 280 -5 0 -16 -24 -26 -52z"/>
<path d="M9082 770 l-22 -9 1 -381 1 -380 34 0 34 0 0 122 c0 67 -5 148 -12
180 -11 51 -10 62 4 86 15 25 22 27 90 30 40 1 173 9 294 17 257 17 724 19
969 4 94 -6 269 -14 390 -20 300 -12 459 -25 484 -38 17 -10 21 -21 21 -66 0
-29 5 -57 10 -60 6 -3 10 -48 10 -99 0 -136 6 -156 43 -156 28 0 29 2 23 33
-9 42 -12 66 -21 157 -4 41 -11 91 -15 110 -5 19 -10 54 -12 78 -1 24 -6 46
-10 48 -4 3 -8 26 -9 52 0 52 -19 150 -33 171 -14 22 -74 42 -160 51 -419 47
-822 66 -1616 75 -295 3 -484 1 -498 -5z m483 -45 c94 -3 348 -11 565 -16 217
-5 447 -14 510 -19 63 -5 180 -14 260 -20 211 -15 331 -27 365 -36 47 -12 57
-27 80 -122 16 -65 13 -67 -88 -58 -268 24 -1151 44 -1462 33 -143 -4 -349
-11 -457 -13 l-197 -5 -15 30 c-11 21 -16 58 -16 120 l0 90 43 5 c124 16 195
22 217 20 14 -2 102 -6 195 -9z"/>
<path d="M1769 540 c-2 -25 -3 -157 -1 -293 l4 -247 78 0 78 0 -8 33 c-4 17
-15 52 -23 77 -9 25 -23 77 -32 115 -9 39 -28 107 -42 153 -13 45 -30 110 -37
145 l-13 62 -4 -45z"/>
<path d="M4994 209 c-21 -26 -44 -78 -44 -99 0 -11 -11 -30 -25 -42 -14 -12
-25 -32 -25 -45 0 -21 4 -23 60 -23 l60 0 -1 53 c-1 28 -4 79 -8 111 -5 46 -8
56 -17 45z"/>
<path d="M3510 153 c0 -16 9 -39 20 -51 11 -11 27 -39 36 -61 12 -31 22 -41
38 -41 13 0 25 3 29 6 7 7 -12 53 -30 72 -7 7 -13 17 -13 22 0 5 -6 15 -12 22
-7 8 -18 23 -24 33 -18 33 -44 31 -44 -2z"/>
</g>
</svg>
